<svg id="Layer_1" data-name="Layer 1" xmlns="http://www.w3.org/2000/svg" viewBox="0 0 795.15364 575.59345"><defs><style>.cls-1{fill:#3fba91;stroke:#3fba91;stroke-width:3.36752px;}.cls-1,.cls-10,.cls-11,.cls-12,.cls-13,.cls-14,.cls-15,.cls-16,.cls-17,.cls-18,.cls-19,.cls-2,.cls-20,.cls-21,.cls-23,.cls-24,.cls-25,.cls-27,.cls-28,.cls-29,.cls-3,.cls-30,.cls-4,.cls-5,.cls-6,.cls-7,.cls-8,.cls-9{stroke-miterlimit:10;}.cls-1,.cls-10,.cls-11,.cls-32,.cls-6,.cls-8,.cls-9{opacity:0.8;}.cls-2,.cls-22{fill:#979ea5;}.cls-2,.cls-3{stroke:#979ea5;}.cls-2{stroke-width:3.15364px;}.cls-3{fill:none;stroke-width:4.7498px;}.cls-13,.cls-4{fill:#fcd1c4;stroke:#fcd1c4;}.cls-4{stroke-width:0.20502px;}.cls-5{fill:#979fa5;stroke:#979fa5;}.cls-6{fill:#4ea7d3;stroke:#4ea7d3;}.cls-7{fill:#d7d9db;stroke:#d7d9db;stroke-width:0.49061px;}.cls-8,.cls-9{fill:#f6947e;stroke:#f6916d;}.cls-8{stroke-width:0.4025px;}.cls-9{stroke-width:0.40327px;}.cls-10,.cls-11{fill:#4fc0aa;stroke:#80cdc1;}.cls-10{stroke-width:0.1779px;}.cls-11,.cls-12,.cls-20{stroke-width:0.2423px;}.cls-12,.cls-15{fill:#c6cfea;stroke:#c6cfea;}.cls-13{stroke-width:0.17507px;}.cls-14{fill:#717373;stroke-width:0.04777px;}.cls-14,.cls-16{stroke:#fff;}.cls-15,.cls-19{stroke-width:0.05259px;}.cls-16,.cls-26{fill:#fff;}.cls-16{stroke-width:0.05828px;}.cls-17,.cls-18,.cls-19,.cls-20,.cls-21{fill:#e8e9e9;stroke:#e8e9e9;}.cls-17{stroke-width:0.01741px;}.cls-18{stroke-width:0.03481px;}.cls-21{stroke-width:0.04581px;}.cls-23,.cls-27,.cls-28,.cls-29{fill:#fde6e0;stroke:#fde6e0;}.cls-23,.cls-24{stroke-width:1.50613px;}.cls-24{fill:#f5959d;stroke:#f5959d;}.cls-25{fill:#4da7d3;stroke:#4da7d3;stroke-width:0.82829px;}.cls-27{stroke-width:1.06338px;}.cls-28{stroke-width:0.70604px;}.cls-29{stroke-width:0.96079px;}.cls-30{fill:#d98f7d;stroke:#d98f7d;stroke-width:0.68535px;}.cls-31{fill:#919191;}.cls-32{fill:#00a79d;}</style></defs><path class="cls-1" d="M378.99825,314.44308c-7.34919-5.926-6.71158-16.99-5.92431-27.92888.83043-11.53821,4.3744-32.52658,21.15827-56.70409a127.09933,127.09933,0,0,1,18.52554,45.18975c2.901,14.9446,5.26732,27.135-2.2804,35.45264C402.94557,318.75252,387.36342,321.18836,378.99825,314.44308Z" transform="translate(1.57682 -38.4948)"/><path class="cls-1" d="M354.7491,301.71136c-7.34919-5.926-6.71159-16.99-5.92431-27.92887.83042-11.53821,4.37439-32.52659,21.15827-56.70409a127.0992,127.0992,0,0,1,18.52553,45.18975c2.901,14.94459,5.26732,27.135-2.28039,35.45263C378.69642,306.02081,363.11427,308.45665,354.7491,301.71136Z" transform="translate(1.57682 -38.4948)"/><path class="cls-2" d="M0,422.23a941.04,941.04,0,0,0,117.37485,22.19211c289.38357,35.67679,518.44742-73.52866,594.43191-110.9606C748.51282,315.37915,776.86469,298.91769,792,289.86984v76.87985a1058.2376,1058.2376,0,0,1-139.63641,96.69425C415.86664,600.3028,186.39548,609.52545,99.93818,612,56.86571,613.23279,21.77291,611.99109,0,610.863Z" transform="translate(1.57682 -38.4948)"/><line class="cls-3" x1="373.8377" y1="302.27917" x2="227.85915" y2="302.27917"/><line class="cls-3" x1="373.8377" y1="292.26911" x2="227.85915" y2="292.26911"/><line class="cls-3" x1="373.8377" y1="280.91968" x2="227.85915" y2="280.91968"/><line class="cls-3" x1="367.45749" y1="268.62716" x2="221.47894" y2="268.62716"/><line class="cls-3" x1="367.45749" y1="258.6171" x2="221.47894" y2="258.6171"/><line class="cls-3" x1="367.45749" y1="247.26767" x2="221.47894" y2="247.26767"/><path class="cls-3" d="M215.48868,352.604l5.25776-26.28881q1.31445,8.87245,2.62888,17.74494-.98584,6.9008-1.97164,13.80163" transform="translate(1.57682 -38.4948)"/><path class="cls-3" d="M366.45575,351.09784l5.25776-26.28881q1.31444,8.87245,2.62888,17.74494-.98585,6.90079-1.97165,13.80163" transform="translate(1.57682 -38.4948)"/><path class="cls-4" d="M410.18026,523.92317c3.972-20.57487,16.51361-77.45785,44.64118-103.37118,2.822-2.59982,9.6348-8.87633,11.99252-7.66915,4.23321,2.16744-8.82535,26.95956-19.64135,47.3227C438.687,476.18123,426.48922,498.04208,410.18026,523.92317Z" transform="translate(1.57682 -38.4948)"/><path class="cls-5" d="M146.69231,412.23077c23.49783-57.82891,19.88849-97.63009,11.53846-123.84616-8.661-27.19253-25.04968-47.49438-28.46154-90a178.12781,178.12781,0,0,1,3.84616-53.07692,179.69549,179.69549,0,0,0,34.61538,130c15.50386-10.39542,19.707-20.11543,20.76923-26.92307,1.63348-10.469-4.82376-16.52789-5.38461-31.53845a61.91534,61.91534,0,0,1,4.61538-25.38463,72.55568,72.55568,0,0,0,0,23.07694c.84963,5.22691,3.37395,20.75677,9.23076,21.53845,5.4314.7249,11.19409-11.572,14.2746-18.14537a119.60746,119.60746,0,0,0,11.11-42.62386c2.93271,28.87818-3.65127,47.19721-10,58.46154-10.716,19.013-24.06111,23.78115-30.76924,44.61538-4.86372,15.10584-2.48816,27.00992-.71381,40.702,2.74944,21.21655,4.71366,51.80652.71381,91.60568Z" transform="translate(1.57682 -38.4948)"/><path class="cls-6" d="M133.61539,266.84616c-10.37183-6.51288-27.5951-19.43594-39.23078-41.53847-30.16165-57.2935,7.6035-118.55548,10-122.30769,17.36649-27.19075,41.0797-41.51683,55.38462-48.46154a373.13939,373.13939,0,0,1,11.53846,122.3077c-.835,11.32431-2.16554,22.10605-3.84616,32.30768a46.397,46.397,0,0,0-18.46153,10C129.94455,236.24559,133.17577,263.57025,133.61539,266.84616Z" transform="translate(1.57682 -38.4948)"/><path class="cls-6" d="M174.38461,237.61539c-7.63221-15.2394-19.1315-44.34853-14.61538-80,6.77894-53.515,45.12777-86.34449,58.46154-97.69231a184.15991,184.15991,0,0,1,30-20.76923A175.04353,175.04353,0,0,1,269,80.69231c3.16019,9.23849,21.07715,67.35669-10,125.38461a154.87179,154.87179,0,0,1-36.15384,44.61539c7.41548-18.02962-1.84291-36.19855-13.84616-40C196.47487,206.72557,177.50862,217.30943,174.38461,237.61539Z" transform="translate(1.57682 -38.4948)"/><path class="cls-7" d="M586.82416,291.37522a142.8504,142.8504,0,0,0-.3774-45.66456c-.723-4.17666-1.47914-7.39749-1.887-9.05744a133.69735,133.69735,0,0,0-18.49226-41.89063q8.08416,10.84442,16.2279,22.26619,7.19013,10.09255,13.96354,20.00183a161.91483,161.91483,0,0,1,43.40022-47.55153,99.8428,99.8428,0,0,0-36.98453,103.40571Z" transform="translate(1.57682 -38.4948)"/><path class="cls-8" d="M551.4827,201.28857c5.30283,13.932,20.65507,27.78745,32.81766,24.01059,12.67647-3.93643,16.75444-25.43241,13.00589-40.42037-4.08052-16.31525-19.391-32.73885-31.5811-30.033C552.501,157.78117,544.47951,182.88924,551.4827,201.28857Z" transform="translate(1.57682 -38.4948)"/><path class="cls-9" d="M588.29429,207.39112c2.00761,10.45288,10.59783,16.2626,11.80368,17.052,10.75786,7.04217,24.34522,4.64336,32.924-.34641,15.12551-8.79758,16.89071-26.93439,17.78331-36.10551.792-8.13768,1.86978-19.21144-4.85-24.51942-8.01883-6.33408-21.73023-.18341-26.94439,2.15556C604.30132,172.22573,584.79089,189.15033,588.29429,207.39112Z" transform="translate(1.57682 -38.4948)"/><path class="cls-10" d="M564.82313,317.93366a21.75439,21.75439,0,0,1-13.52265-13.00252c-3.35742-9.10482.17533-20.212,9.02148-27.26331a22.43955,22.43955,0,0,0,6.78782,13.57564,40.92825,40.92825,0,0,0,9.36721-23.71441c12.80358,7.21488,19.73121,20.14658,17.48893,31.68273-.25029,1.28766-2.60151,12.54656-12.99758,17.47649A22.14206,22.14206,0,0,1,564.82313,317.93366Z" transform="translate(1.57682 -38.4948)"/><path class="cls-11" d="M531.95492,317.22512a29.62987,29.62987,0,0,1-18.41809-17.70967c-4.57288-12.40094.23879-27.52911,12.28741-37.13314a30.563,30.563,0,0,0,9.24514,18.49027,55.745,55.745,0,0,0,12.75831-32.29946c17.43873,9.8268,26.87428,27.44,23.82026,43.15246-.34091,1.75382-3.54331,17.08866-17.703,23.80331A30.15786,30.15786,0,0,1,531.95492,317.22512Z" transform="translate(1.57682 -38.4948)"/><path class="cls-4" d="M482.33547,530.28473c-8.23452-19.269-29.70783-73.41568-20.92231-110.63766.88144-3.7344,3.00938-12.75,5.63871-13.07063,4.72084-.57572,7.79037,27.27663,10.23676,50.20387C479.20792,474.76765,481.34857,499.70959,482.33547,530.28473Z" transform="translate(1.57682 -38.4948)"/><path class="cls-12" d="M448.23077,404.53845q-10.38459,15.76923-20.76922,31.53848l64.61538,3.07691c-3.59585-11.41922-7.64007-25.39826-11.53848-41.53845-3.04651-12.61313-3.57519-16.49054-3.84613-19.23078-.99548-10.06881-.54916-25.40414,7.69229-44.61538l-28.46154,5.38461c-6.99537,3.8277-15.17627,9.45679-14.61539,15.38461.34109,3.60477,3.622,4.22522,7.69232,10,.92767,1.31613,7.71875,11.25336,6.15384,23.84616A32.86081,32.86081,0,0,1,448.23077,404.53845Z" transform="translate(1.57682 -38.4948)"/><path class="cls-13" d="M421.30768,404.53845c20.56866-14.65594,29.90863-29.56955,34.61539-40.76922,4.938-11.74982,7.78179-26.56339,18.79989-30.09565.4357-.13967,7.15088-2.21093,9.94147.89054,5.35629,5.953-7.476,26.81747-17.20288,38.43588C460.06189,381.83865,446.03372,395.39053,421.30768,404.53845Z" transform="translate(1.57682 -38.4948)"/><circle class="cls-4" cx="467.96144" cy="275.4388" r="15.98077"/><path class="cls-14" d="M465.90573,304.8631c2.70862,2.47735,1.58109,7.88144,1.10745,10.15158a19.88027,19.88027,0,0,1-4.42981,8.85959c3.8158-.65451,6.7981-3.115,7.56757-6.27555a7.7249,7.7249,0,0,0-.3887-4.62222,10.59916,10.59916,0,0,1,4.26477,6.83713c.84476,5.66171-3.67026,9.46573-3.90506,9.65683.99121-.11463,7.9397-1.03565,11.97925-7.26621a16.68819,16.68819,0,0,0,.23166-17.34115c2.48284,2.06613,5.78427,5.50577,6.64468,10.33615,1.00146,5.62225-2.09223,8.70364-2.0303,13.65854.051,4.07767,2.24606,9.98187,12.73562,17.1654a39.36657,39.36657,0,0,1-3.5069-6.82925c-1.17849-2.9791-2.202-5.5665-2.2149-8.85956a18.14766,18.14766,0,0,1,3.13776-9.967,14.62582,14.62582,0,0,0-2.17-15.627c-5.3096-6.10663-13.34726-4.743-13.7034-4.67621-.40423-.44889-6.66253-7.162-15.70511-5.62183a17.44662,17.44662,0,0,0-13.84738,13.24106C457.10233,303.16257,463.21487,302.402,465.90573,304.8631Z" transform="translate(1.57682 -38.4948)"/><path class="cls-15" d="M454.68073,301.632l-12.62809.61456L482.906,323.95572l.43661-4.077Q469.01167,310.75539,454.68073,301.632Z" transform="translate(1.57682 -38.4948)"/><path class="cls-16" d="M457.18289,298.40594a9.35789,9.35789,0,0,0-3.51443,3.2753q14.83707,9.09875,29.67413,18.19751c.12561-.29171.24936-.60388.36737-.93606q.131-.36873.23474-.71588Q470.56382,308.31636,457.18289,298.40594Z" transform="translate(1.57682 -38.4948)"/><path class="cls-17" d="M254.14221,412.25677" transform="translate(1.57682 -38.4948)"/><path class="cls-18" d="M274.24754,472.09745c.20665,4.97546-4.76239,8.41483-6.48718,9.60867-6.45524,4.46808-16.76619,5.42375-19.31506,1.48577-3.39014-5.23773,5.52355-21.33812,15.22919-20.80082C268.44934,462.6554,274.035,466.98086,274.24754,472.09745Z" transform="translate(1.57682 -38.4948)"/><path class="cls-19" d="M323.16258,492.35333c-.74857,7.18075-19.17362,11.6885-33.01487,10.28354-4.82092-.48935-17.44476-1.77076-20.62793-10.01658a12.38976,12.38976,0,0,1,1.01786-10.574c4.99978-8.19559,19.02914-6.79782,23.188-6.38345C307.43024,477.02822,323.898,485.2987,323.16258,492.35333Z" transform="translate(1.57682 -38.4948)"/><path class="cls-20" d="M272.96632,505.98214c1.52618-6.90393-.45816-14.55713-2.19916-14.67468-1.23865-.08362-2.15463,3.6604-5.388,13.4129-2.57092,7.75452-4.87177,14.074-6.492,18.39481C262.03132,521.34557,270.78077,515.86883,272.96632,505.98214Z" transform="translate(1.57682 -38.4948)"/><path class="cls-20" d="M282.63927,501.62453c-2.66715-6.54826-8.64877-11.7183-10.14819-10.82575-1.06676.635.307,4.23636,3.188,14.09869,2.2908,7.84184,3.98839,14.34934,5.11034,18.82551C282.37111,520.48023,286.45874,511.00189,282.63927,501.62453Z" transform="translate(1.57682 -38.4948)"/><path class="cls-20" d="M317.5005,503.27591c1.52618-6.90393-.45816-14.55713-2.19916-14.67468-1.23865-.08362-2.15463,3.6604-5.388,13.4129-2.57092,7.75452-4.87176,14.074-6.492,18.39481C306.5655,518.63934,315.315,513.1626,317.5005,503.27591Z" transform="translate(1.57682 -38.4948)"/><path class="cls-20" d="M327.17345,498.9183c-2.66715-6.54826-8.64877-11.7183-10.14818-10.82575-1.06677.635.307,4.23636,3.188,14.09869,2.29079,7.84184,3.98839,14.34934,5.11033,18.82551C326.90529,517.774,330.99292,508.29566,327.17345,498.9183Z" transform="translate(1.57682 -38.4948)"/><path class="cls-21" d="M319.57186,498.03911c1.31741-7.76882,3.97321-10.528,6.25934-11.55918,3.12326-1.4088,6.082.17054,8.26264-2.58064a8.18818,8.18818,0,0,0,1.42779-6.45518,9.198,9.198,0,0,0-1.48861-3.42152c4.39479.89093,7.83529,4.10286,8.44376,7.52317.6851,3.85105-2.44118,6.72313-3.2615,7.47672-2.77543,2.54976-5.36592,2.06027-9.45506,3.21346A25.36858,25.36858,0,0,0,319.57186,498.03911Z" transform="translate(1.57682 -38.4948)"/><path class="cls-17" d="M260.86716,462.174c-.558,1.28207-1.60313,3.68374-.54976,5.71756a5.43546,5.43546,0,0,0,6.26734,2.41894c2.7538-.96029,3.34314-4.3139,3.62845-5.93747.06381-.36316,1.07347-6.67972-3.29163-9.82193a8.40824,8.40824,0,0,0-4.29513-1.50323,6.676,6.676,0,0,1,.87962,4.50808C263.11005,459.4471,261.89889,459.80324,260.86716,462.174Z" transform="translate(1.57682 -38.4948)"/><path class="cls-17" d="M254.90057,466.67525c.512,1.3011,1.47121,3.73839,3.65418,4.43167a5.43546,5.43546,0,0,0,6.14213-2.72122c1.2682-2.62627-.68643-5.41435-1.63272-6.76413-.21167-.30191-3.96422-5.48233-9.27269-4.61762a8.40811,8.40811,0,0,0-4.10006,1.97417,6.67593,6.67593,0,0,1,3.80968,2.56571C254.55834,463.1611,253.95375,464.26936,254.90057,466.67525Z" transform="translate(1.57682 -38.4948)"/><path class="cls-22" d="M279.90909,471.30182q7.41129-5.99264,15.36252-11.29349a190.11975,190.11975,0,0,1,16.45651-9.67071c11.32513-5.86988,23.37906-10.12476,35.36731-14.3,6.0083-2.06586,12.01288-4.12842,17.96966-6.32053q8.92878-3.30405,17.73267-6.93054,8.80161-3.63057,17.43176-7.668,8.65445-3.97888,17.13413-8.33676-8.35877,4.579-16.90933,8.8085-8.57533,4.17133-17.33719,7.95294c-5.83344,2.53543-11.76795,4.83066-17.71415,7.085-5.95764,2.2258-11.95968,4.32553-17.95849,6.41714-6.00778,2.065-12.012,4.12744-17.92923,6.40854q-8.8824,3.40485-17.41754,7.613c-5.6825,2.81277-11.16339,6.01522-16.544,9.37728Q287.4933,465.50773,279.90909,471.30182Z" transform="translate(1.57682 -38.4948)"/><path class="cls-23" d="M287.32782,390.73569C299.68841,376.782,315.85,356.63,321.77753,340.1452c3.08282-8.57343,1.48375-10.83285.72273-11.56353-2.60585-2.50212-9.39971-.53585-13.73172,2.89087-6.80664,5.38416-7.17247,14.08666-8.67262,22.88618A118.888,118.888,0,0,1,287.32782,390.73569Z" transform="translate(1.57682 -38.4948)"/><path class="cls-23" d="M277.69481,390.73569C290.0554,376.782,306.217,356.63,312.14453,340.1452c3.08282-8.57343,1.48375-10.83285.72273-11.56353-2.60585-2.50212-9.39971-.53585-13.73173,2.89087-6.80664,5.38416-7.17246,14.08666-8.67262,22.88618A118.88772,118.88772,0,0,1,277.69481,390.73569Z" transform="translate(1.57682 -38.4948)"/><path class="cls-24" d="M288.0551,343.23229c25.91333-6.91015,39.32083-10.48551,39.34919-10.49318l.00221-.0006.06458-.01719.01728-.0046q-1.81843-2.77028-3.64854-5.54457-4.82278-7.31082-9.65224-14.53659a41.48429,41.48429,0,0,0,.32612-18.29292c-1.08727-4.96764-3.03364-8.91406-2.27855-14.89828a23.92045,23.92045,0,0,1,2.60323-8.13512,18.37025,18.37025,0,0,1-7.80965,10.08751,18.57449,18.57449,0,0,1-12.69079,2.27786,20.93993,20.93993,0,0,1-12.36533-6.83348,22.84467,22.84467,0,0,1,6.65367,11.73756c1.09747,5.71675-1.04245,8.76656-.471,14.62015.35258,3.61153,1.77947,8.72254,6.83348,14.64318Q291.52194,330.53718,288.0551,343.23229Z" transform="translate(1.57682 -38.4948)"/><path class="cls-25" d="M310.50811,324.62663l-10.24486-.65091q-.8141-7.06595-1.62824-14.13192l10.60264,1.13442Z" transform="translate(1.57682 -38.4948)"/><path class="cls-25" d="M321.85146,321.75058q-4.96755,1.37247-9.93506,2.745L310.646,310.84713q5.04834-1.47654,10.09673-2.953Q321.29705,314.82233,321.85146,321.75058Z" transform="translate(1.57682 -38.4948)"/><path class="cls-26" d="M311.8278,325.01865l-.85733.07981q-.69082-7.27158-1.38161-14.54311l.88-.136Z" transform="translate(1.57682 -38.4948)"/><path class="cls-27" d="M306.01914,323.07749c-15.41767-5.3074-25.93135-15.03047-28.3597-23.78348a34.49706,34.49706,0,0,1-.65079-12.69074c.40673-3.15278.96146-7.45289,3.254-8.13512,2.07511-.61752,4.77422,1.96705,6.18268,3.90487,4.65615,6.40616.49494,13.25017,1.70994,20.82582C288.9893,308.39915,292.61293,315.60912,306.01914,323.07749Z" transform="translate(1.57682 -38.4948)"/><path class="cls-28" d="M312.706,332.36221c1.13724-1.5599,5.10718-7.38376,4.21259-14.748a20.17488,20.17488,0,0,0-2.865-7.93579c-1.05972-1.82532-2.50507-4.315-4.08383-4.143-1.38681.151-2.5347,2.17642-2.78052,3.98016-.4549,3.33808,2.23413,5.44315,4.00442,8.58716C312.734,320.83838,314.07471,325.24124,312.706,332.36221Z" transform="translate(1.57682 -38.4948)"/><circle class="cls-29" cx="297.4068" cy="220.6151" r="12.45743"/><path class="cls-30" d="M288.75866,253.70574c2.40839.43734,4.404,2.97746,4.62774,6.33271a10.55,10.55,0,0,0,6.81988-1.58317c3.47263-2.41653,3.76468-6.63354,4.8713-6.57627.84968.044,1.82916,2.58977,2.6332,12.34937a15.309,15.309,0,0,0,2.6776-10.14193c-.72447-6.39163-5.88236-11.46357-11.80769-12.91463-6.88575-1.68626-14.61791,1.56377-17.738,7.90618a14.83077,14.83077,0,0,0,.65686,14.15955,14.04188,14.04188,0,0,0,4.5798,4.47326c-3.52687-4.79767-4.0662-9.8986-1.84474-12.37539A5.10781,5.10781,0,0,1,288.75866,253.70574Z" transform="translate(1.57682 -38.4948)"/><path class="cls-31" d="M442.05264,239.93755q5.38692-60.23578,10.77384-120.47153,1.88538,60.63206,3.77084,121.26411Z" transform="translate(1.57682 -38.4948)"/><path class="cls-31" d="M410.09131,220.53178q5.38692-60.23577,10.77383-120.47153,1.88541,60.63205,3.77085,121.26412Z" transform="translate(1.57682 -38.4948)"/><path class="cls-32" d="M420.9314,80.6298q-15.45525,57.858-30.91046,115.71607l56.00317-.8167Q433.47777,138.0795,420.9314,80.6298Z" transform="translate(1.57682 -38.4948)"/><path class="cls-32" d="M453.31272,87.065q-15.45525,57.858-30.91046,115.71607l56.00317-.81669Q465.8591,144.51473,453.31272,87.065Z" transform="translate(1.57682 -38.4948)"/></svg>