<svg id="Layer_1" data-name="Layer 1" xmlns="http://www.w3.org/2000/svg" xmlns:xlink="http://www.w3.org/1999/xlink" viewBox="0 0 87.72705 83.08441"><defs><style>.cls-1,.cls-2,.cls-3,.cls-4,.cls-5,.cls-6,.cls-7{fill:none;}.cls-1,.cls-10,.cls-2,.cls-3,.cls-4,.cls-5,.cls-6,.cls-7,.cls-8,.cls-9{stroke-miterlimit:10;}.cls-1{stroke-width:0.82236px;stroke:url(#linear-gradient);}.cls-2,.cls-3,.cls-4,.cls-5,.cls-6,.cls-7{stroke-width:0.82236px;}.cls-2{stroke:url(#linear-gradient-2);}.cls-3{stroke:url(#linear-gradient-3);}.cls-4{stroke:url(#linear-gradient-4);}.cls-5{stroke:url(#linear-gradient-5);}.cls-6{stroke:url(#linear-gradient-6);}.cls-7{stroke:url(#linear-gradient-7);}.cls-10,.cls-8,.cls-9{fill:#fff;}.cls-8,.cls-9{stroke-width:0.83328px;}.cls-8{stroke:url(#linear-gradient-8);}.cls-9{stroke:url(#linear-gradient-9);}.cls-10{stroke-width:0.97688px;stroke:url(#linear-gradient-10);}</style><linearGradient id="linear-gradient" y1="45.94092" x2="74.28698" y2="45.94092" gradientUnits="userSpaceOnUse"><stop offset="0.09967" stop-color="#7a7b7d"/><stop offset="0.1326" stop-color="#909193"/><stop offset="0.20097" stop-color="#cacbcc"/><stop offset="0.25377" stop-color="#fafbfc"/><stop offset="0.28962" stop-color="#d3d4d5"/><stop offset="0.33488" stop-color="#a7a8aa"/><stop offset="0.37564" stop-color="#88898b"/><stop offset="0.41001" stop-color="#757678"/><stop offset="0.43384" stop-color="#6e6f71"/></linearGradient><linearGradient id="linear-gradient-2" x1="662.17569" y1="454.60674" x2="725.41648" y2="454.60674" gradientTransform="translate(-505.64201 -579.99706) rotate(15.84641)" xlink:href="#linear-gradient"/><linearGradient id="linear-gradient-3" x1="668.6741" y1="462.15441" x2="731.91489" y2="462.15441" gradientTransform="translate(346.17596 -733.74494) rotate(78.21508)" xlink:href="#linear-gradient"/><linearGradient id="linear-gradient-4" x1="508.44152" y1="339.61324" x2="571.6823" y2="339.61324" gradientTransform="translate(526.82404 -362.93052) rotate(107.90073)" xlink:href="#linear-gradient"/><linearGradient id="linear-gradient-5" x1="425.05062" y1="421.9223" x2="488.2914" y2="421.9223" gradientTransform="translate(659.39216 48.78008) rotate(137.51591)" xlink:href="#linear-gradient"/><linearGradient id="linear-gradient-6" x1="425.83736" y1="565.73372" x2="489.07815" y2="565.73372" gradientTransform="translate(-46.03844 769.58333) rotate(-134.49476)" xlink:href="#linear-gradient"/><linearGradient id="linear-gradient-7" x1="687.66347" y1="595.43558" x2="750.90425" y2="595.43558" gradientTransform="matrix(0.9463, -0.32328, 0.32328, 0.9463, -835.5003, -284.39292)" xlink:href="#linear-gradient"/><linearGradient id="linear-gradient-8" x1="699.78644" y1="424.87935" x2="725.08299" y2="424.87935" gradientTransform="translate(192.24972 -135.07593) rotate(18.68755)" xlink:href="#linear-gradient"/><linearGradient id="linear-gradient-9" x1="687.98581" y1="507.41242" x2="713.28235" y2="507.41242" gradientTransform="matrix(0.98174, -0.19022, 0.19022, 0.98174, -65.12315, 128.46222)" xlink:href="#linear-gradient"/><linearGradient id="linear-gradient-10" x1="615.57083" y1="370.68366" x2="641.03377" y2="370.68366" gradientTransform="matrix(0.90914, 0.86726, -0.75501, 0.79148, 448.10452, -332.10751)" xlink:href="#linear-gradient"/></defs><circle class="cls-1" cx="37.14349" cy="45.94092" r="36.73231"/><line class="cls-2" x1="2.2476" y1="56.49519" x2="73.05867" y2="37.06672"/><line class="cls-3" x1="11.76348" y1="19.31556" x2="61.81692" y2="73.0401"/><line class="cls-4" x1="29.21433" y1="10.86972" x2="46.09194" y2="82.33172"/><line class="cls-5" x1="47.97401" y1="10.82267" x2="27.33226" y2="81.28962"/><line class="cls-6" x1="72.47497" y1="55.85928" x2="1.32718" y2="37.70263"/><line class="cls-7" x1="14.07866" y1="74.68429" x2="61.22761" y2="18.39353"/><path class="cls-8" d="M726.52985,470.76033a25.92691,25.92691,0,0,1,21.36681,12.767q-16.20963,15.16611-32.41927,30.33221Q721.00361,492.31,726.52985,470.76033Z" transform="translate(-676.13647 -470.33121)"/><path class="cls-9" d="M703.0349,473.89594a25.92687,25.92687,0,0,1,24.885.52392Q721.33645,495.61942,714.753,516.819,708.89394,495.35746,703.0349,473.89594Z" transform="translate(-676.13647 -470.33121)"/><path class="cls-10" d="M745.151,477.97027A37.38645,37.38645,0,0,1,757.222,488.764a34.59787,34.59787,0,0,1,6.08716,14.46119q-24.31038,6.37893-48.62076,12.75785Q729.91964,496.97662,745.151,477.97027Z" transform="translate(-676.13647 -470.33121)"/></svg>