<svg id="Layer_1" data-name="Layer 1" xmlns="http://www.w3.org/2000/svg" xmlns:xlink="http://www.w3.org/1999/xlink" viewBox="0 0 169.38892 112.08353"><defs><style>.cls-1,.cls-2,.cls-3{fill:none;stroke-miterlimit:10;}.cls-1{stroke-width:0.85753px;stroke:url(#linear-gradient);}.cls-2,.cls-3{stroke-width:1.30953px;}.cls-2{stroke:url(#linear-gradient-2);}.cls-3{stroke:url(#linear-gradient-3);}</style><linearGradient id="linear-gradient" x1="635.30554" y1="543.54425" x2="804.69446" y2="543.54425" gradientUnits="userSpaceOnUse"><stop offset="0.09967" stop-color="#7a7b7d"/><stop offset="0.1326" stop-color="#909193"/><stop offset="0.20097" stop-color="#cacbcc"/><stop offset="0.25377" stop-color="#fafbfc"/><stop offset="0.28962" stop-color="#d3d4d5"/><stop offset="0.33488" stop-color="#a7a8aa"/><stop offset="0.37564" stop-color="#88898b"/><stop offset="0.41001" stop-color="#757678"/><stop offset="0.43384" stop-color="#6e6f71"/></linearGradient><linearGradient id="linear-gradient-2" x1="17.67358" y1="29.06479" x2="75.80317" y2="29.06479" xlink:href="#linear-gradient"/><linearGradient id="linear-gradient-3" x1="92.40538" y1="29.06479" x2="150.53497" y2="29.06479" xlink:href="#linear-gradient"/></defs><path class="cls-1" d="M635.73256,563.86191a48.8066,48.8066,0,0,1,31.2076-41.27454c20.23149-7.64608,39.33972.863,49.32814,9.06023,3.5661,2.92665,13.57014,11.13674,13.08705,22.14734-.28077,6.39946-4.10229,13.70246-7.85491,13.69147-4.01879-.01178-8.29022-7.793-8.25222-14.69816.05663-10.294,9.68571-17.45283,13.9826-20.6474,2.81792-2.095,22.03714-16.3837,45.209-8.50455,17.40949,5.91977,29.88988,21.91814,31.8281,40.79376" transform="translate(-635.30554 -455.83165)"/><circle class="cls-2" cx="46.73837" cy="29.06479" r="28.41003"/><circle class="cls-3" cx="121.47017" cy="29.06479" r="28.41003"/></svg>