<svg id="Layer_1" data-name="Layer 1" xmlns="http://www.w3.org/2000/svg" xmlns:xlink="http://www.w3.org/1999/xlink" viewBox="0 0 64.88442 112.15911"><defs><style>.cls-1,.cls-2,.cls-3{fill:none;stroke-miterlimit:10;}.cls-1{stroke:url(#linear-gradient);}.cls-2{stroke:url(#linear-gradient-2);}.cls-3{stroke:url(#linear-gradient-3);}</style><linearGradient id="linear-gradient" x1="668.79395" y1="569.80481" x2="718.27048" y2="569.80481" gradientTransform="translate(161.28245 -178.87274) rotate(12.13066)" gradientUnits="userSpaceOnUse"><stop offset="0.09967" stop-color="#7a7b7d"/><stop offset="0.1326" stop-color="#909193"/><stop offset="0.20097" stop-color="#cacbcc"/><stop offset="0.25377" stop-color="#fafbfc"/><stop offset="0.28962" stop-color="#d3d4d5"/><stop offset="0.33488" stop-color="#a7a8aa"/><stop offset="0.37564" stop-color="#88898b"/><stop offset="0.41001" stop-color="#757678"/><stop offset="0.43384" stop-color="#6e6f71"/></linearGradient><linearGradient id="linear-gradient-2" x1="1136.71513" y1="482.5779" x2="1186.19166" y2="482.5779" gradientTransform="matrix(-0.98715, 0.15978, 0.15978, 0.98715, 1791.4788, -139.02777)" xlink:href="#linear-gradient"/><linearGradient id="linear-gradient-3" x1="696.13947" y1="470.59616" x2="747.89151" y2="470.59616" gradientTransform="matrix(1, 0, 0, 1, 0, 0)" xlink:href="#linear-gradient"/></defs><path class="cls-1" d="M688.26586,555.3097l10.36467,12.15093a125.10573,125.10573,0,0,0,36.50737-34.899c6.92269-10.11209,14.68608-21.79248,13.9826-37.43712a45.94008,45.94008,0,0,0-2.43223-12.74926c-.68355,1.32636-1.66477,3.19915-2.88288,5.418a235.844,235.844,0,0,1-55.53953,67.51637Z" transform="translate(-687.55779 -455.96063)"/><path class="cls-2" d="M751.732,555.85658q-5.48675,5.802-10.9735,11.60405a125.10561,125.10561,0,0,1-34.67174-36.72322c-6.39561-10.45342-13.55048-22.51617-12.04654-38.10422a45.94028,45.94028,0,0,1,3.08213-12.60794c.6147,1.35964,1.4987,3.28023,2.60155,5.55859a235.844,235.844,0,0,0,52.0081,70.27274Z" transform="translate(-687.55779 -455.96063)"/><path class="cls-3" d="M696.60908,481.37254a29.08433,29.08433,0,0,1,26.63169-14.24445c15.18234.943,22.769,13.77721,23.31256,14.73443q-1.55372-6.357-3.10751-12.71393c-.472-.83606-6.87-11.71362-19.9525-12.62821-12.77764-.89329-20.55215,8.513-21.21535,9.34489Z" transform="translate(-687.55779 -455.96063)"/></svg>