<svg id="Layer_1" data-name="Layer 1" xmlns="http://www.w3.org/2000/svg" xmlns:xlink="http://www.w3.org/1999/xlink" viewBox="0 0 137.91789 112.44449"><defs><style>.cls-1{fill:none;stroke:url(#linear-gradient);}.cls-1,.cls-2,.cls-3{stroke-miterlimit:10;}.cls-2,.cls-3{fill:#fff;}.cls-2{stroke:url(#linear-gradient-2);}.cls-3{stroke:url(#linear-gradient-3);}</style><linearGradient id="linear-gradient" x1="679.29991" y1="504.88872" x2="761.75794" y2="504.88872" gradientUnits="userSpaceOnUse"><stop offset="0.09967" stop-color="#7a7b7d"/><stop offset="0.1326" stop-color="#909193"/><stop offset="0.20097" stop-color="#cacbcc"/><stop offset="0.25377" stop-color="#fafbfc"/><stop offset="0.28962" stop-color="#d3d4d5"/><stop offset="0.33488" stop-color="#a7a8aa"/><stop offset="0.37564" stop-color="#88898b"/><stop offset="0.41001" stop-color="#757678"/><stop offset="0.43384" stop-color="#6e6f71"/></linearGradient><linearGradient id="linear-gradient-2" x1="651.04106" y1="550.85492" x2="754.35744" y2="550.85492" xlink:href="#linear-gradient"/><linearGradient id="linear-gradient-3" x1="1299.76125" y1="849.13768" x2="1403.07764" y2="849.13768" gradientTransform="translate(2088.7202 1362.00327) rotate(180)" xlink:href="#linear-gradient"/></defs><path class="cls-1" d="M679.99768,546.76705l14.28069,6.70761q17.6345-31.91517,35.269-63.83033a23.483,23.483,0,0,0,7.78948,1.29824c3.86762-.02776,6.01087-1.04578,8.65493-1.51464,3.08468-.547,7.72542-.5015,14.06433,2.59648a76.41327,76.41327,0,0,0-11.80655-12.3518,53.35075,53.35075,0,0,0-6.1265-4.35549,48.75587,48.75587,0,0,0-6.4866-3.26538q-13.55028-6.07029-27.1005-12.14062-.71685,1.29914-1.43374,2.5983a1.54761,1.54761,0,0,1-2.5187-1.66q.64438-1.25415,1.28872-2.50829-2.0351-1.00984-4.07018-2.01973-4.05357,8.18094-8.10723,16.36184,1.99.88441,3.97991,1.76885l.9969-1.93719a1.48432,1.48432,0,0,1,2.70759,1.14037l-.8547,2.19481q7.55124,3.513,15.10246,7.02592Q697.8123,514.82156,679.99768,546.76705Z" transform="translate(-651.04106 -455.65117)"/><path class="cls-2" d="M654.10849,567.32144q-1.26274-9.40577-2.52545-18.8115c14.77107-7.79773,18.667-12.08582,25.08065-13.93241,4.22467-1.21634,5.31475.081,18.78633,2.50484,6.8539,1.23316,15.76769,2.29276,20.48338,2.87454a3.89807,3.89807,0,0,1,3.793,1.41992,3.08458,3.08458,0,0,1,.51049,1.80775c0,3.58627-3.94487,3.35538-3.94487,3.35538l-26.47415-1.30284c6.18457,2.63279,12.32562,3.52125,22.80593,3.342a51.49932,51.49932,0,0,0,9.97145-1.04353,106.44967,106.44967,0,0,0,24.80893-9.425,4.5839,4.5839,0,0,1,3.2788-.59613,4.37467,4.37467,0,0,1,3.15349,4.47091c-.17075,1.63886-.42815,1.697-3.00448,3.577a76.36794,76.36794,0,0,1-12.67717,6.86311c-1.98315.83562-13.18154,5.86025-16.95094,7.16861a129.55114,129.55114,0,0,1-18.48365,4.095c-5.821.86643-18.08438-2.93255-27.59786-2.32909A57.69351,57.69351,0,0,0,654.10849,567.32144Z" transform="translate(-651.04106 -455.65117)"/><path class="cls-3" d="M785.89151,496.39906q1.26274,9.40577,2.52545,18.8115c-14.77107,7.79773-18.667,12.08582-25.08065,13.93242-4.22467,1.21633-5.31475-.081-18.78633-2.50484-6.8539-1.23317-15.76769-2.29276-20.48338-2.87455a3.89807,3.89807,0,0,1-3.793-1.41992,3.08458,3.08458,0,0,1-.51049-1.80775c0-3.58627,3.94487-3.35538,3.94487-3.35538l26.47415,1.30284c-6.18457-2.63279-12.32562-3.52125-22.80593-3.342a51.49861,51.49861,0,0,0-9.97145,1.04352,106.44967,106.44967,0,0,0-24.80893,9.425,4.5839,4.5839,0,0,1-3.2788.59613,4.37467,4.37467,0,0,1-3.15349-4.47091c.17075-1.63886.42815-1.697,3.00448-3.577a76.36794,76.36794,0,0,1,12.67717-6.86311c1.98315-.83562,13.18154-5.86025,16.95094-7.16861a129.54976,129.54976,0,0,1,18.48365-4.095c5.821-.86644,18.08438,2.93254,27.59786,2.32908A57.69351,57.69351,0,0,0,785.89151,496.39906Z" transform="translate(-651.04106 -455.65117)"/></svg>