<svg id="Layer_1" data-name="Layer 1" xmlns="http://www.w3.org/2000/svg" xmlns:xlink="http://www.w3.org/1999/xlink" viewBox="0 0 126.9948 112.42344"><defs><style>.cls-1,.cls-2,.cls-3{fill:none;stroke-miterlimit:10;}.cls-1{stroke:url(#linear-gradient);}.cls-2{stroke:url(#linear-gradient-2);}.cls-3{stroke:url(#linear-gradient-3);}</style><linearGradient id="linear-gradient" x1="694.41541" y1="497.38535" x2="744.42085" y2="497.38535" gradientUnits="userSpaceOnUse"><stop offset="0.09967" stop-color="#7a7b7d"/><stop offset="0.1326" stop-color="#909193"/><stop offset="0.20097" stop-color="#cacbcc"/><stop offset="0.25377" stop-color="#fafbfc"/><stop offset="0.28962" stop-color="#d3d4d5"/><stop offset="0.33488" stop-color="#a7a8aa"/><stop offset="0.37564" stop-color="#88898b"/><stop offset="0.41001" stop-color="#757678"/><stop offset="0.43384" stop-color="#6e6f71"/></linearGradient><linearGradient id="linear-gradient-2" x1="699.29827" y1="476.67687" x2="743.64645" y2="476.67687" xlink:href="#linear-gradient"/><linearGradient id="linear-gradient-3" x1="656.5026" y1="539.01626" x2="783.4974" y2="539.01626" xlink:href="#linear-gradient"/></defs><path class="cls-1" d="M694.914,539.07194c.89332-12.01487,4.83116-41.53436,27.7659-65.6961a97.17,97.17,0,0,1,21.13684-16.777q-.73183,6.77931-1.46375,13.5586l-8.19853.07568q3.04,2.91449,6.07989,5.829a52.93851,52.93851,0,0,1-34.55859,37.01563" transform="translate(-656.5026 -455.6617)"/><path class="cls-2" d="M699.79671,497.286a42.22885,42.22885,0,0,1,5.00566-17.07478c11.08751-20.16337,35.46887-23.31025,38.78782-23.6861" transform="translate(-656.5026 -455.6617)"/><path class="cls-3" d="M739.96808,510.50623q21.3167,14.9086,42.6334,29.81723c-14.37215,9.28543-34.69732,19.23013-60.15754,22.49369-1.07386.13765-6.27168.22195-13.33928,1.04622a176.34426,176.34426,0,0,0-20.66282,3.66175q-15.5625-19.355-31.125-38.71006a119.99263,119.99263,0,0,1,27.72477-7.32352c5.41241-.75418,9.23885-.90962,11.5084-1.04622C705.99367,519.877,720.13654,517.73,739.96808,510.50623Z" transform="translate(-656.5026 -455.6617)"/></svg>