<svg id="Layer_1" data-name="Layer 1" xmlns="http://www.w3.org/2000/svg" viewBox="0 0 772.74472 270.62164"><defs><style>.cls-1{fill:none;stroke:#231f20;stroke-miterlimit:10;stroke-width:3px;}.cls-2{fill:#231f20;}.cls-3{fill:#727071;}.cls-4{fill:#bcb8b8;}.cls-5{fill:#e0dcde;}.cls-6{fill:#6d6d6d;}.cls-7{fill:#e8e6e7;}.cls-8{fill:#f7f5f6;}</style></defs><line class="cls-1" y1="269.12158" x2="772.74472" y2="269.12164"/><path class="cls-2" d="M627.56064,635.93233A505.68577,505.68577,0,0,1,897.81784,368.206c5.9253,2.59826,7.7854,5.49325,8.33838,7.73794,1.06854,4.33744-2.43994,7.47824-1.14325,12.28461a11.84009,11.84009,0,0,0,5.07227,6.44144A440.00112,440.00112,0,0,0,667.12216,635.93233Z" transform="translate(-440.9328 -368.20601)"/><path class="cls-3" d="M703.675,635.851a366.761,366.761,0,0,1,59.338-101.92688c57.59546-69.81436,127.02832-100.57453,162.75067-113.42792,5.9253,2.59827,7.7854,5.49326,8.33838,7.73795,1.06854,4.33743-2.43994,7.47824-1.14325,12.2846a11.84009,11.84009,0,0,0,5.07227,6.44144c-29.39716,9.31091-93.23743,34.12808-144.57282,96.94293a297.79656,297.79656,0,0,0-50.94854,91.85779Z" transform="translate(-440.9328 -368.20601)"/><path class="cls-4" d="M667.12216,635.93233A436.20772,436.20772,0,0,1,910.43454,395.2408c6.13971,2.04053,8.259,4.75155,9.01666,6.93567,1.46418,4.22036-1.73962,7.67144-.005,12.33767a11.83967,11.83967,0,0,0,5.6449,5.946c-33.8385,12.14474-97.97052,40.49063-153.85083,103.80517A369.2176,369.2176,0,0,0,703.675,635.851Z" transform="translate(-440.9328 -368.20601)"/><path class="cls-5" d="M742.50968,635.76094a283.25452,283.25452,0,0,1,45.05761-86.6214c52.09668-67.88916,121.22083-92.96246,150.37934-101.64331,5.92529,2.59827,7.7854,5.49326,8.33838,7.73795,1.06854,4.33743-2.44,7.47824-1.14325,12.2846a11.84007,11.84007,0,0,0,5.07226,6.44144c-23.06592,5.36322-87.62634,23.65439-134.83044,84.18579a228.52281,228.52281,0,0,0-39.30414,77.69684Q759.29453,635.80193,742.50968,635.76094Z" transform="translate(-440.9328 -368.20601)"/><path class="cls-3" d="M828.48758,645.27406" transform="translate(-440.9328 -368.20601)"/><path class="cls-6" d="M776.07944,635.84285c5.89551-20.25305,23.04547-68.99231,70.16077-109.97058a231.83865,231.83865,0,0,1,104.3717-51.71186c5.92529,2.59827,7.7854,5.49326,8.33838,7.738,1.06854,4.33743-2.43994,7.47824-1.14325,12.28461a11.84,11.84,0,0,0,5.07226,6.44143c-18.15289,2.90259-86.51086,16.04132-129.51074,76.37122A177.09464,177.09464,0,0,0,806.21414,635.824Z" transform="translate(-440.9328 -368.20601)"/><path class="cls-7" d="M806.21414,635.824A184.34663,184.34663,0,0,1,853.886,553.187c42.33484-42.09278,92.51684-50.17753,108.88647-52.1178,5.9253,2.59826,7.7854,5.49325,8.33838,7.73791,1.06854,4.33747-2.43994,7.47827-1.14325,12.28467a11.84012,11.84012,0,0,0,5.07227,6.44141c-10.69757-.13153-60.17432.408-99.91113,38.77465-27.02655,26.09467-35.76136,56.37684-38.71662,69.50092Q821.31317,635.81634,806.21414,635.824Z" transform="translate(-440.9328 -368.20601)"/><path class="cls-8" d="M836.41217,635.80872c3.09979-13.683,11.42023-41.34375,35.32245-66.09333,40.03229-41.45147,92.683-42.54529,103.41577-42.54174,4.00055,3.35827,5.09161,6.33648,5.28906,8.5263.293,3.25049-1.35028,5.12653-.60089,8.4126a10.92165,10.92165,0,0,0,4.13373,5.97424c-9.84729-.012-56.483.96674-90.96356,37.29047a118.26649,118.26649,0,0,0-27.52289,48.42132Q850.949,635.80362,836.41217,635.80872Z" transform="translate(-440.9328 -368.20601)"/><path class="cls-8" d="M961.81156,657.38191" transform="translate(-440.9328 -368.20601)"/></svg>