<svg id="Layer_1" data-name="Layer 1" xmlns="http://www.w3.org/2000/svg" xmlns:xlink="http://www.w3.org/1999/xlink" viewBox="0 0 84.77968 112"><defs><style>.cls-1,.cls-2,.cls-3,.cls-4{fill:none;stroke-miterlimit:10;}.cls-1{stroke:url(#linear-gradient);}.cls-2{stroke:url(#linear-gradient-2);}.cls-3{stroke:url(#linear-gradient-3);}.cls-4{stroke:url(#linear-gradient-4);}</style><linearGradient id="linear-gradient" x1="677.61016" y1="505.76038" x2="720.52637" y2="505.76038" gradientUnits="userSpaceOnUse"><stop offset="0.09967" stop-color="#7a7b7d"/><stop offset="0.1326" stop-color="#909193"/><stop offset="0.20097" stop-color="#cacbcc"/><stop offset="0.25377" stop-color="#fafbfc"/><stop offset="0.28962" stop-color="#d3d4d5"/><stop offset="0.33488" stop-color="#a7a8aa"/><stop offset="0.37564" stop-color="#88898b"/><stop offset="0.41001" stop-color="#757678"/><stop offset="0.43384" stop-color="#6e6f71"/></linearGradient><linearGradient id="linear-gradient-2" x1="719.47363" y1="505.76038" x2="762.38984" y2="505.76038" xlink:href="#linear-gradient"/><linearGradient id="linear-gradient-3" x1="26.53815" y1="102.65215" x2="57.96783" y2="102.65215" xlink:href="#linear-gradient"/><linearGradient id="linear-gradient-4" x1="26.47813" y1="108.55072" x2="57.90782" y2="108.55072" xlink:href="#linear-gradient"/></defs><path class="cls-1" d="M704.922,555.57628a28.49361,28.49361,0,0,0-1.3685-14.23234c-2.53091-6.63861-6.80051-9.36865-12.31646-15.87454-5.66724-6.68433-9.35013-11.43381-11.49535-18.33783a37.10581,37.10581,0,0,1,1.3685-25.454,37.81349,37.81349,0,0,1,8.211-11.49536,43.77125,43.77125,0,0,1,18.06413-11.769,41.244,41.244,0,0,1,13.13755-2.0387" transform="translate(-677.61016 -455.87342)"/><path class="cls-2" d="M735.078,555.57628a28.49361,28.49361,0,0,1,1.3685-14.23234c2.53091-6.63861,6.80051-9.36865,12.31646-15.87454,5.66724-6.68433,9.35013-11.43381,11.49535-18.33783a37.10581,37.10581,0,0,0-1.3685-25.454,37.81349,37.81349,0,0,0-8.211-11.49536,43.77125,43.77125,0,0,0-18.06413-11.769,41.244,41.244,0,0,0-13.13755-2.0387" transform="translate(-677.61016 -455.87342)"/><rect class="cls-3" x="27.03815" y="99.70287" width="30.42969" height="5.89857"/><rect class="cls-4" x="26.97813" y="105.60143" width="30.42969" height="5.89857"/></svg>