<?xml version="1.0" encoding="UTF-8"?>
<svg id="Layer_1" data-name="Layer 1" xmlns="http://www.w3.org/2000/svg" width="650" height="500" viewBox="0 0 650 500">
  <defs>
    <style>
      .cls-1 {
        fill: #00af00;
      }

      .cls-2 {
        fill: #e6e6e6;
      }

      .cls-3 {
        fill: #106880;
      }

      .cls-4 {
        fill: #15d1d1;
      }

      .cls-5 {
        fill: #12a3c9;
      }

      .cls-6 {
        fill: #3f3d56;
      }

      .cls-7 {
        fill: #2f2e41;
      }
    </style>
  </defs>
  <path class="cls-3" d="m415.54,299.85l-1.16,13.08c-.27,3.2-3.12,5.52-6.24,5.25l-109.23-9.25c-3.21-.27-5.52-3.11-5.26-6.23l1.16-13.08c.27-3.2,3.12-5.52,6.24-5.25l109.23,9.25c3.21.27,5.52,3.11,5.26,6.23Z"/>
  <path class="cls-3" d="m437.37,363.72l-12.12,5.16c-2.94,1.25-5.97.8-6.77-1.07l-26.73-62.54c-.8-1.78.98-4.36,3.92-5.6l12.12-5.16c2.94-1.25,5.97-.8,6.77,1.07l26.73,62.54c.71,1.78-.98,4.36-3.92,5.6Z"/>
  <path class="cls-2" d="m373.31,343.44h-204.83c6.41-46.26-25.93-88.87-72.26-95.27-46.33-6.4-89,25.89-95.42,72.14-6.41,46.26,25.93,88.87,72.26,95.27,3.83.53,7.75.8,11.58.8,10.33,0,20.58-1.87,30.29-5.6v82.11c0,3.91,3.21,7.12,7.13,7.12h251.25c3.92,0,7.13-3.2,7.13-7.12v-142.33c0-3.91-3.21-7.12-7.13-7.12Z"/>
  <path class="cls-6" d="m388.46,481.32h-251.25c-4.45,0-8.02-3.56-8.02-8.01v-142.33c0-4.45,3.56-8.01,8.02-8.01h251.25c4.45,0,8.02,3.56,8.02,8.01v142.33c0,4.45-3.56,8.01-8.02,8.01Zm-251.25-156.56c-3.47,0-6.24,2.76-6.24,6.23v142.33c0,3.47,2.76,6.23,6.24,6.23h251.25c3.47,0,6.24-2.76,6.24-6.23v-142.33c0-3.47-2.76-6.23-6.24-6.23h-251.25Z"/>
  <path class="cls-3" d="m388.82,309.63l-1.16,13.08c-.27,3.2-3.12,5.52-6.24,5.25l-109.23-9.25c-3.21-.27-5.52-3.11-5.26-6.23l1.16-13.08c.27-3.2,3.12-5.52,6.24-5.25l109.23,9.25c3.21.27,5.52,3.11,5.26,6.23Z"/>
  <path class="cls-3" d="m410.64,373.5l-12.12,5.16c-2.94,1.25-5.97.8-6.77-1.07l-26.73-62.54c-.8-1.78.98-4.36,3.92-5.6l12.12-5.16c2.94-1.25,5.97-.8,6.77,1.07l26.73,62.54c.71,1.78-.98,4.36-3.92,5.6Z"/>
  <polygon class="cls-1" points="552.96 18.31 575.6 1 592.93 23.6 570.29 40.91 552.96 18.31"/>
  <ellipse class="cls-5" cx="447.58" cy="160.3" rx="19.6" ry="19.57"/>
  <path class="cls-6" d="m442.59,174.18c-6.86-8.98-5.17-21.79,3.83-28.64,9-6.85,21.83-5.16,28.69,3.83,6.86,8.98,5.17,21.79-3.83,28.64-8.91,6.85-21.83,5.16-28.69-3.83Zm31.09-23.75c-6.33-8.18-18-9.79-26.19-3.47-8.2,6.32-9.8,17.97-3.47,26.15,6.33,8.18,18,9.79,26.19,3.47h0c8.2-6.32,9.8-17.97,3.47-26.15h0Z"/>
  <path class="cls-6" d="m577.12,42.43l-18.44-24.02,24.06-18.41,18.44,24.02-24.06,18.41Zm-15.95-23.75l16.22,21.17,21.2-16.19-16.22-21.17-21.2,16.19Z"/>
  <polygon class="cls-4" points="601.8 177.08 624.43 159.78 641.76 182.38 619.13 199.68 601.8 177.08"/>
  <path class="cls-6" d="m625.94,201.13l-18.44-24.02,24.06-18.41,18.44,24.02-24.06,18.41Zm-15.95-23.66l16.22,21.17,21.2-16.19-16.22-21.17-21.2,16.19Z"/>
  <rect class="cls-6" x=".9" y="479.54" width="555.95" height="1.78"/>
  <path class="cls-6" d="m96.23,394.14c-47.22,0-85.53-38.25-85.53-85.4s38.31-85.4,85.53-85.4,85.53,38.25,85.53,85.4c-.09,47.15-38.31,85.31-85.53,85.4Zm0-169.02c-46.24,0-83.75,37.45-83.75,83.62s37.51,83.62,83.75,83.62,83.75-37.45,83.75-83.62c-.09-46.17-37.51-83.53-83.75-83.62h0Z"/>
  <ellipse class="cls-3" cx="281.9" cy="134.39" rx="47.67" ry="47.59"/>
  <path class="cls-7" d="m288.94,152l-.09-1.78c3.3-.09,6.24-.27,8.46-1.87,1.25-.98,2.05-2.4,2.14-4,.09-.98-.27-1.96-1.07-2.58-1.43-1.25-3.83-.8-5.52-.09l-1.51.71,2.85-20.64,1.78.27-2.41,17.52c2.32-.71,4.45-.36,5.97.89,1.16.98,1.78,2.49,1.69,4-.09,2.13-1.16,4.09-2.85,5.43-2.85,1.96-6.5,2.05-9.44,2.13Z"/>
  <rect class="cls-7" x="304.71" y="123.54" width="9.62" height="1.78"/>
  <rect class="cls-7" x="274.42" y="123.54" width="9.62" height="1.78"/>
  <path class="cls-7" d="m350.15,325.2h-112.26c-2.23,0-4.01-1.78-4.01-4v-90.02c0-22.68,18.44-41.19,41.25-41.19h36.71c2.23,0,4.01,1.78,4.01,3.91l38.31,127.21v.09c0,2.22-1.78,4-4.01,4Z"/>
  <path class="cls-3" d="m275.58,226.46l13.19.09c3.21,0,5.79,2.67,5.7,5.87l-.89,109.42c0,3.2-2.67,5.78-5.88,5.69l-13.19-.09c-3.21,0-5.79-2.67-5.7-5.87l.89-109.42c.09-3.2,2.67-5.78,5.88-5.69Z"/>
  <path class="cls-7" d="m262.39,222.01c0-10.85,8.73-19.57,19.6-19.57s19.6,8.72,19.6,19.57v43.59h-39.2v-43.59Z"/>
  <path class="cls-7" d="m219.98,154.58c48.29-44.57,112.08-55.78,112.08-55.78l-17.91-9.16c-77.51-80.68-76-10.59-76-10.59-40.45-12.19-15.24,57.2-15.24,57.2l-2.94,18.33Z"/>
</svg>