<?xml version="1.0" encoding="UTF-8"?>
<svg id="Layer_1" data-name="Layer 1" xmlns="http://www.w3.org/2000/svg" viewBox="0 0 84 84">
  <defs>
    <style>
      .cls-1, .cls-2 {
        fill: #fff;
      }

      .cls-2 {
        stroke: #fff;
        stroke-miterlimit: 10;
        stroke-width: 2px;
      }
    </style>
  </defs>
  <path class="cls-1" d="M35.00721,36.08025c0-2.92332-.40129-5.08723-1.20386-6.4929-.80374-1.4045-2.40772-2.10675-4.8166-2.10675h-1.71946v-1.72063h7.73992c2.12075,0,3.7119,.27297,4.77344,.81774,1.06038,.54477,1.81979,1.53399,2.2794,2.96648,.45845,1.43366,.68825,3.61274,.68825,6.53606v30.10229h-7.74109v-30.10229Z"/>
  <path class="cls-1" d="M45.99942,40.87235c0-2.92449-.40129-5.0884-1.20386-6.49407-.80374-1.40333-2.40772-2.10675-4.8166-2.10675h-1.71946v-1.71946h7.73992c2.12075,0,3.7119,.2718,4.77344,.81657,1.06038,.54594,1.81979,1.53515,2.2794,2.96765,.45845,1.43366,.68825,3.61157,.68825,6.53606v30.10229h-7.74109v-30.10229Z"/>
  <g>
    <path class="cls-1" d="M51.76879,23.1747c3.14007,3.19743,5.20276,7.36988,5.85921,11.8015"/>
    <path class="cls-1" d="M52.48227,22.47401c3.0462,3.57382,4.82526,8.03629,5.14575,12.5022-.98059-4.37079-3.35272-8.30499-6.57269-11.10083l1.42694-1.40137h0Z"/>
  </g>
  <path class="cls-2" d="M25.09445,21.12516c3.56895-2.49201,8.03884-3.91368,12.38342-3.94351"/>
  <path class="cls-1" d="M34.11075,22.32102c4.84806,1.69588,7.00749,1.03358,8.08091,.08982,1.76736-1.55389,1.35095-4.53922,3.97072-6.30316,.89801-.60463,1.80072-.82875,2.36342-.92524-4.08453-1.71017-6.09687-1.22548-7.17973-.46501-2.05244,1.44128-1.73215,4.55158-4.64727,6.52458-.99173,.67119-1.97205,.94966-2.58805,1.079Z"/>
  <path class="cls-1" d="M40.48156,24.83161c4.84803,1.6959,7.00748,1.03359,8.08091,.08983,1.76736-1.55389,1.35093-4.53922,3.97071-6.30316,.89801-.60463,1.80073-.82875,2.36344-.92523-4.08455-1.71017-6.09688-1.22549-7.17976-.46504-2.05242,1.4413-1.73215,4.55159-4.64727,6.52459-.9917,.67118-1.97204,.94968-2.58803,1.07899Z"/>
  <path class="cls-1" d="M10,0C4.5,0,0,4.5,0,10v64c0,5.5,4.5,10,10,10H74c5.5,0,10-4.5,10-10V10c0-5.5-4.5-10-10-10H10Zm0,4H74c3.33594,0,6,2.66406,6,6v64c0,3.33594-2.66406,6-6,6H10c-3.33594,0-6-2.66406-6-6V10c0-3.33594,2.66406-6,6-6Z"/>
</svg>