<?xml version="1.0" encoding="UTF-8"?>
<svg id="Layer_1" data-name="Layer 1" xmlns="http://www.w3.org/2000/svg" width="84" height="84" viewBox="0 0 84 84">
  <defs>
    <style>
      .cls-1 {
        fill: #4c4c4c;
      }

      .cls-2 {
        fill: #fff;
        stroke: #4c4c4c;
        stroke-miterlimit: 10;
        stroke-width: 2px;
      }
    </style>
  </defs>
  <path class="cls-1" d="m52.51,22.51c2.83,3.66,4.45,8.07,4.71,12.47-.92-4.31-3.15-8.24-6.19-11.13l1.49-1.34h0Z"/>
  <path class="cls-1" d="m35.01,36.08c0-2.92-.4-5.09-1.2-6.49-.8-1.4-2.41-2.11-4.82-2.11h-1.72v-1.72h7.74c2.12,0,3.71.27,4.77.82,1.06.54,1.82,1.53,2.28,2.97.46,1.43.69,3.61.69,6.54v30.1h-7.74s0-30.1,0-30.1Z"/>
  <path class="cls-1" d="m46,40.87c0-2.92-.4-5.09-1.2-6.49-.8-1.4-2.41-2.11-4.82-2.11h-1.72v-1.72h7.74c2.12,0,3.71.27,4.77.82,1.06.55,1.82,1.54,2.28,2.97.46,1.43.69,3.61.69,6.54v30.1h-7.74s0-30.1,0-30.1Z"/>
  <path class="cls-2" d="m25.09,21.13c3.57-2.49,8.04-3.91,12.38-3.94"/>
  <path class="cls-1" d="m34.11,22.32c4.85,1.7,7.01,1.03,8.08.09,1.77-1.55,1.35-4.54,3.97-6.3.9-.6,1.8-.83,2.36-.93-4.08-1.71-6.1-1.23-7.18-.47-2.05,1.44-1.73,4.55-4.65,6.52-.99.67-1.97.95-2.59,1.08Z"/>
  <path class="cls-1" d="m40.48,24.83c4.85,1.7,7.01,1.03,8.08.09,1.77-1.55,1.35-4.54,3.97-6.3.9-.6,1.8-.83,2.36-.93-4.08-1.71-6.1-1.23-7.18-.47-2.05,1.44-1.73,4.55-4.65,6.52-.99.67-1.97.95-2.59,1.08h0Z"/>
  <path class="cls-1" d="m10,0C4.5,0,0,4.5,0,10v64c0,5.5,4.5,10,10,10h64c5.5,0,10-4.5,10-10V10c0-5.5-4.5-10-10-10H10Zm0,4h64c3.34,0,6,2.66,6,6v64c0,3.34-2.66,6-6,6H10c-3.34,0-6-2.66-6-6V10c0-3.34,2.66-6,6-6Z"/>
</svg>