<?xml version="1.0" encoding="UTF-8"?>
<svg id="Layer_1" data-name="Layer 1" xmlns="http://www.w3.org/2000/svg" width="60" height="60" viewBox="0 0 60 60">
  <defs>
    <style>
      .cls-1 {
        fill: #4c4c4c;
      }

      .cls-2 {
        fill: #fff;
        stroke: #4c4c4c;
        stroke-miterlimit: 10;
        stroke-width: 2px;
      }
    </style>
  </defs>
  <path class="cls-1" d="m37.56,16.13c2,2.6,3.11,5.81,3.41,8.91-.6-3.11-2.2-5.91-4.41-7.91l1-1h0Z"/>
  <path class="cls-1" d="m25.04,25.84c0-2.1-.3-3.61-.9-4.61s-1.7-1.5-3.41-1.5h-1.2v-1.2h5.51c1.5,0,2.6.2,3.41.6.8.4,1.3,1.1,1.6,2.1.4,1,.5,2.6.5,4.61v21.54h-5.51v-21.54Z"/>
  <path class="cls-1" d="m32.95,29.25c0-2.1-.3-3.61-.9-4.61-.6-1-1.7-1.5-3.41-1.5h-1.2v-1.2h5.51c1.5,0,2.6.2,3.41.6s1.3,1.1,1.6,2.1c.4,1,.5,2.6.5,4.61v21.54h-5.61v-21.54h.1Z"/>
  <path class="cls-2" d="m17.93,15.13c2.6-1.8,5.71-2.8,8.91-2.8"/>
  <path class="cls-1" d="m24.44,15.93c3.41,1.2,5.01.7,5.81.1,1.3-1.1,1-3.21,2.9-4.51.6-.4,1.3-.6,1.7-.6-2.9-1.2-4.41-.9-5.11-.4-1.5,1-1.2,3.31-3.31,4.61-.9.5-1.6.8-2,.8Z"/>
  <path class="cls-1" d="m28.95,17.73c3.41,1.2,5.01.7,5.81.1,1.3-1.1,1-3.21,2.9-4.51.6-.4,1.3-.6,1.7-.6-2.9-1.2-4.41-.9-5.11-.4-1.5,1-1.2,3.31-3.31,4.61-.8.5-1.5.7-2,.8h0Z"/>
  <path class="cls-1" d="m7.11,0C3.21,0,0,3.21,0,7.11v45.78c0,3.91,3.21,7.11,7.11,7.11h45.78c3.91,0,7.11-3.21,7.11-7.11V7.11c0-3.91-3.21-7.11-7.11-7.11H7.11Zm0,2.9h45.78c2.4,0,4.31,1.9,4.31,4.31v45.78c0,2.4-1.9,4.31-4.31,4.31H7.11c-2.4,0-4.31-1.9-4.31-4.31V7.11c.1-2.3,2-4.21,4.31-4.21Z"/>
</svg>