<?xml version="1.0" encoding="UTF-8"?>
<svg id="Layer_1" data-name="Layer 1" xmlns="http://www.w3.org/2000/svg" width="84" height="84" viewBox="0 0 84 84">
  <defs>
    <style>
      .cls-1 {
        fill: #4c4c4c;
      }
    </style>
  </defs>
  <g id="surface213409176">
    <path class="cls-1" d="m24.82,0C11.13,0,0,11.13,0,24.82v34.36c0,13.68,11.13,24.82,24.82,24.82h34.36c13.68,0,24.82-11.13,24.82-24.82V24.82c0-13.68-11.13-24.82-24.82-24.82H24.82Zm0,3.82h34.36c11.62,0,21,9.38,21,21v34.36c0,11.62-9.38,21-21,21H24.82c-11.62,0-21-9.38-21-21V24.82C3.82,13.2,13.2,3.82,24.82,3.82Zm40.09,11.45c-2.11,0-3.82,1.71-3.82,3.82s1.71,3.82,3.82,3.82,3.82-1.71,3.82-3.82-1.71-3.82-3.82-3.82Zm-22.91,5.73c-11.57,0-21,9.43-21,21s9.43,21,21,21,21-9.43,21-21-9.43-21-21-21Zm0,3.82c9.51,0,17.18,7.67,17.18,17.18s-7.67,17.18-17.18,17.18-17.18-7.67-17.18-17.18,7.67-17.18,17.18-17.18Z"/>
  </g>
</svg>