<?xml version="1.0" encoding="UTF-8"?>
<svg id="Layer_1" data-name="Layer 1" xmlns="http://www.w3.org/2000/svg" width="60" height="60" viewBox="0 0 60 60">
  <defs>
    <style>
      .cls-1 {
        fill: #4c4c4c;
      }
    </style>
  </defs>
  <g id="surface213409176">
    <path class="cls-1" d="m17.7,0C8,0,0,8,0,17.7v24.5c0,9.8,8,17.8,17.7,17.8h24.5c9.8,0,17.8-7.9,17.8-17.7v-24.6c0-9.7-7.9-17.7-17.7-17.7h-24.6Zm0,2.7h24.5c8.3,0,15,6.7,15,15v24.5c0,8.3-6.7,15-15,15h-24.5c-8.3,0-15-6.7-15-15v-24.5c0-8.3,6.7-15,15-15Zm28.7,8.2c-1.5,0-2.7,1.2-2.7,2.7s1.2,2.7,2.7,2.7,2.7-1.2,2.7-2.7c0-1.5-1.2-2.7-2.7-2.7Zm-16.4,4.1c-8.3,0-15,6.7-15,15s6.7,15,15,15,15-6.7,15-15-6.7-15-15-15Zm0,2.7c6.8,0,12.3,5.5,12.3,12.3s-5.5,12.3-12.3,12.3-12.3-5.5-12.3-12.3,5.5-12.3,12.3-12.3Z"/>
  </g>
</svg>