<svg id="Layer_1" data-name="Layer 1" xmlns="http://www.w3.org/2000/svg" xmlns:xlink="http://www.w3.org/1999/xlink" viewBox="0 0 299.63001 792.96173"><defs><style>.cls-1,.cls-14,.cls-15,.cls-4{fill:#fff;}.cls-1,.cls-5{stroke:#fff;}.cls-1,.cls-11,.cls-5{stroke-miterlimit:10;}.cls-1{stroke-width:0.96173px;}.cls-2{fill:url(#linear-gradient);}.cls-3{fill:url(#linear-gradient-2);}.cls-4{font-size:50px;font-family:Garamond;}.cls-11,.cls-5{fill:none;}.cls-5{stroke-width:2.77922px;}.cls-6{font-size:12px;}.cls-13,.cls-6{fill:#636867;font-family:Ebrima;}.cls-7{font-size:11.97612px;fill:#009175;font-family:CopperplateGothic-Light, Copperplate Gothic Light;font-weight:300;}.cls-8{letter-spacing:0.01366em;}.cls-9{letter-spacing:0.01904em;}.cls-10{fill:#00aa89;}.cls-11{stroke-width:0.866px;stroke:url(#linear-gradient-3);}.cls-12{fill:url(#linear-gradient-4);}.cls-13{font-size:18px;}.cls-14{opacity:0.1;}.cls-16{fill:#d9ddda;}</style><linearGradient id="linear-gradient" x1="51.4707" y1="198.25417" x2="238.94999" y2="546.29309" gradientUnits="userSpaceOnUse"><stop offset="0.89627" stop-color="#f2f3f4"/><stop offset="1" stop-color="#f2f2f2"/></linearGradient><linearGradient id="linear-gradient-2" x1="41.4459" y1="235.07776" x2="250.36148" y2="387.57577" gradientUnits="userSpaceOnUse"><stop offset="0" stop-color="#44b7a4"/><stop offset="0.01153" stop-color="#46b8a5"/><stop offset="0.19728" stop-color="#5ec9b8"/><stop offset="0.36831" stop-color="#6dd3c4"/><stop offset="0.50969" stop-color="#72d7c8"/><stop offset="1" stop-color="#44b7a4"/></linearGradient><linearGradient id="linear-gradient-3" x1="55.3224" y1="479.02417" x2="245.12127" y2="479.02417" xlink:href="#linear-gradient-2"/><linearGradient id="linear-gradient-4" x1="124.98581" y1="554.0614" x2="184.69362" y2="554.0614" xlink:href="#linear-gradient-2"/></defs><rect class="cls-1" x="0.48087" y="0.48087" width="298.66828" height="792"/><rect class="cls-2" x="44.24006" y="162.48087" width="212.598" height="439.3701" rx="15"/><rect class="cls-3" x="44.24006" y="202.24642" width="212.598" height="224.92786"/><text class="cls-4" transform="translate(138.24038 328.91058)">S</text><circle class="cls-5" cx="150.53906" cy="313.44839" r="36.91559"/><text class="cls-6" transform="translate(133.04952 255.62659)">Stocks</text><text class="cls-6" transform="translate(77.70973 281.63686)">Bonds</text><text class="cls-6" transform="translate(65.09459 313.74574)">Mutual<tspan x="2.91797" y="14.3999">Funds</tspan></text><text class="cls-6" transform="translate(188.67773 281.44052)">Property</text><text class="cls-7" transform="translate(55.51082 192.92004)">I<tspan class="cls-8" x="3.42676" y="0">nv</tspan><tspan x="19.33887" y="0">e</tspan><tspan class="cls-9" x="26.479" y="0">s</tspan><tspan x="34.12207" y="0">timum</tspan></text><path class="cls-10" d="M280.18478,187.90933a11.55151,11.55151,0,0,0-7.3935-6.85347c2.51717-2.38222,5.91343-5.66851,8.434-7.98652l.14428-.133.16842.09017a18.432,18.432,0,0,1,9.81211,12.38811,19.433,19.433,0,0,0-10.06442-11.90571l.31243-.04287q-2.02642,1.94182-4.09173,3.84236L273.391,181.1256l-.08179-.38788a11.30664,11.30664,0,0,1,6.87555,7.17161Z" transform="translate(-167.75994 0.48087)"/><path class="cls-10" d="M287.84857,184.39044a11.55134,11.55134,0,0,0-7.3935-6.85347c2.51717-2.38221,5.91344-5.6685,8.434-7.98652l.14429-.13305.16845.09017a18.432,18.432,0,0,1,9.81208,12.38811A19.43274,19.43274,0,0,0,288.94944,169.99l.31246-.04287q-2.02647,1.94182-4.09173,3.84234l-4.11536,3.81725-.08176-.38786a11.30662,11.30662,0,0,1,6.87552,7.17161Z" transform="translate(-167.75994 0.48087)"/><text class="cls-6" transform="translate(163.16239 370.01331)">Money Market <tspan x="22.86328" y="14.3999">Funds</tspan></text><text class="cls-6" transform="translate(193.39908 313.33298)">Retirement<tspan x="15.36328" y="14.3999">Plans</tspan></text><text class="cls-6" transform="translate(77.64761 368.20302)">Insurance<tspan x="11.57031" y="14.3999">Plans</tspan></text><polyline class="cls-11" points="55.511 499.161 62.141 502.37 62.141 506.114 74.638 493.278 79.756 503.974 85.089 499.696 88.726 506.114 96.876 493.278 101.738 493.278 110.178 475.628 115.053 475.628 131.254 441.399 131.254 457.979 135.075 450.491 140.14 450.491 146.902 441.399 150.782 467.606 154.84 473.756 154.84 500.765 160.09 495.952 166.371 514.671 173.766 494.882 173.766 503.974 179.594 494.347 181.795 510.392 187.172 507.183 194.73 517.88 199.461 512.532 203.006 513.601 210.85 508.788 215.24 511.462 221.006 505.579 234.62 507.183 244.878 500.23"/><circle class="cls-12" cx="154.83971" cy="554.0614" r="29.85391"/><text class="cls-13" transform="translate(130.83741 558.5926)">Check</text><path class="cls-14" d="M365.76364,162H318.2L211.5885,291.58688v66.83774Q288.67608,260.2123,365.76364,162Z" transform="translate(-167.75994 0.48087)"/><path class="cls-14" d="M273.53384,162l-61.81364-1.12271q.13989,34.95993.2798,69.91987Q242.76692,196.39859,273.53384,162Z" transform="translate(-167.75994 0.48087)"/><circle class="cls-15" cx="181.60091" cy="292.32841" r="11.15323"/><circle class="cls-15" cx="150.78218" cy="277.35535" r="11.15323"/><circle class="cls-15" cx="119.21062" cy="291.32841" r="11.15323"/><circle class="cls-15" cx="114.17785" cy="324.61407" r="11.15323"/><circle class="cls-15" cx="186.25414" cy="324.61407" r="11.15323"/><circle class="cls-15" cx="167.27214" cy="347.75226" r="11.15323"/><circle class="cls-15" cx="132.25398" cy="347.75226" r="11.15323"/><image width="100" height="100" transform="translate(106.67785 317.43494) scale(0.15)" xlink:href="../../../../../Downloads/Icons/icons8-equity-security-100.png"/><image width="100" height="100" transform="translate(143.28218 269.85535) scale(0.15)" xlink:href="../../../../../Downloads/Icons/icons8-stocks-100.png"/><image width="96" height="96" transform="translate(160.3243 340.25226) scale(0.15625)" xlink:href="../../../../../Downloads/Icons/icons8-direct-growth-of-internation-forex-money-market-96.png"/><image width="64" height="64" transform="translate(124.75398 340.25226) scale(0.23438)" xlink:href="../../../../../Downloads/Icons/icons8-insurance-64.png"/><image width="100" height="100" transform="translate(178.75414 317.43494) scale(0.15)" xlink:href="../../../../../Downloads/Icons/icons8-retirement-100.png"/><image width="100" height="100" transform="translate(174.10091 284.82841) scale(0.15)" xlink:href="../../../../../Downloads/Icons/icons8-real-estate-100.png"/><image width="100" height="100" transform="translate(111.39012 283.48164) scale(0.15)" xlink:href="../../../../../Downloads/Icons/icons8-bonds-100.png"/><polygon class="cls-15" points="129.835 321.915 170.448 301.294 128.544 325.547 129.835 321.915"/><path class="cls-16" d="M297.55549,321.2955l40.65212-20.48273L292.9484,320.59089Z" transform="translate(-167.75994 0.48087)"/></svg>