<svg xmlns="http://www.w3.org/2000/svg" width="1236.5" height="58.823" viewBox="0 0 1236.5 58.823">
  <g id="Group_367" data-name="Group 367" transform="translate(-365 -2183)">
    <g id="Path_394" data-name="Path 394" transform="translate(365 2186)" fill="#106880">
      <path d="M 25.55141258239746 55.22347259521484 L 0.5000002980232239 38.33595657348633 L 0.5000002980232239 0.500001072883606 L 51.494140625 0.500001072883606 L 51.494140625 38.33081436157227 L 25.55141258239746 55.22347259521484 Z" stroke="none"/>
      <path d="M 1 1 L 1 38.07000732421875 L 25.55620193481445 54.62369537353516 L 50.994140625 38.05973052978516 L 50.994140625 1 L 1 1 M 0 0 L 51.994140625 0 L 51.994140625 38.60189056396484 L 25.546630859375 55.8232421875 L 0 38.60189056396484 L 0 0 Z" stroke="none" fill="#707070"/>
    </g>
    <g id="Path_396" data-name="Path 396" transform="translate(1549.023 2186)" fill="#106880">
      <path d="M 25.55141258239746 55.22347259521484 L 0.5000002980232239 38.33595657348633 L 0.5000002980232239 0.500001072883606 L 51.494140625 0.500001072883606 L 51.494140625 38.33081436157227 L 25.55141258239746 55.22347259521484 Z" stroke="none"/>
      <path d="M 1 1 L 1 38.07000732421875 L 25.55620193481445 54.62369537353516 L 50.994140625 38.05973052978516 L 50.994140625 1 L 1 1 M 0 0 L 51.994140625 0 L 51.994140625 38.60189056396484 L 25.546630859375 55.8232421875 L 0 38.60189056396484 L 0 0 Z" stroke="none" fill="#707070"/>
    </g>
    <g id="Path_397" data-name="Path 397" transform="translate(661.006 2186)" fill="#106880">
      <path d="M 25.55141258239746 55.22347259521484 L 0.5000002980232239 38.33595657348633 L 0.5000002980232239 0.500001072883606 L 51.494140625 0.500001072883606 L 51.494140625 38.33081436157227 L 25.55141258239746 55.22347259521484 Z" stroke="none"/>
      <path d="M 1 1 L 1 38.07000732421875 L 25.55620193481445 54.62369537353516 L 50.994140625 38.05973052978516 L 50.994140625 1 L 1 1 M 0 0 L 51.994140625 0 L 51.994140625 38.60189056396484 L 25.546630859375 55.8232421875 L 0 38.60189056396484 L 0 0 Z" stroke="none" fill="#707070"/>
    </g>
    <g id="Path_398" data-name="Path 398" transform="translate(957.012 2186)" fill="#106880">
      <path d="M 25.55141258239746 55.22347259521484 L 0.5000002980232239 38.33595657348633 L 0.5000002980232239 0.500001072883606 L 51.494140625 0.500001072883606 L 51.494140625 38.33081436157227 L 25.55141258239746 55.22347259521484 Z" stroke="none"/>
      <path d="M 1 1 L 1 38.07000732421875 L 25.55620193481445 54.62369537353516 L 50.994140625 38.05973052978516 L 50.994140625 1 L 1 1 M 0 0 L 51.994140625 0 L 51.994140625 38.60189056396484 L 25.546630859375 55.8232421875 L 0 38.60189056396484 L 0 0 Z" stroke="none" fill="#707070"/>
    </g>
    <g id="Path_399" data-name="Path 399" transform="translate(1253.018 2185.5)" fill="#106880">
      <path d="M 25.55141258239746 55.22347259521484 L 0.5000002980232239 38.33595657348633 L 0.5000002980232239 0.500001072883606 L 51.494140625 0.500001072883606 L 51.494140625 38.33081436157227 L 25.55141258239746 55.22347259521484 Z" stroke="none"/>
      <path d="M 1 1 L 1 38.07000732421875 L 25.55620193481445 54.62369537353516 L 50.994140625 38.05973052978516 L 50.994140625 1 L 1 1 M 0 0 L 51.994140625 0 L 51.994140625 38.60189056396484 L 25.546630859375 55.8232421875 L 0 38.60189056396484 L 0 0 Z" stroke="none" fill="#707070"/>
    </g>
    <line id="Line_94" data-name="Line 94" x1="1236" transform="translate(365.5 2185.5)" fill="none" stroke="#106880" stroke-width="5"/>
  </g>
</svg>
