<?xml version="1.0" encoding="UTF-8"?>
<svg id="Layer_1" data-name="Layer 1" xmlns="http://www.w3.org/2000/svg" width="84" height="84" viewBox="0 0 84 84">
  <defs>
    <style>
      .cls-1 {
        fill: #4c4c4c;
      }
    </style>
  </defs>
  <g id="surface213421142">
    <path class="cls-1" d="m10,0C4.5,0,0,4.5,0,10v64c0,5.5,4.5,10,10,10h64c5.5,0,10-4.5,10-10V10c0-5.5-4.5-10-10-10H10Zm0,4h64c3.34,0,6,2.66,6,6v64c0,3.34-2.66,6-6,6H10c-3.34,0-6-2.66-6-6V10c0-3.34,2.66-6,6-6Zm10,10.02c-2.19,0-4.16.66-5.62,1.88s-2.36,3.06-2.36,5.03c0,3.73,3.24,6.64,7.36,6.93,0,0,0,0,0,0,.2.07.4.1.61.11,4.55,0,7.98-3.18,7.98-7.04,0-.04,0-.07,0-.11-.2-3.8-3.59-6.8-7.97-6.8Zm0,3.95c2.79,0,3.88,1.24,4,3.01-.02,1.71-1.08,3.04-4,3.04-2.77,0-4.02-1.42-4.02-3.09,0-.84.3-1.46.95-2s1.67-.95,3.08-.95Zm-6,12.02c-1.11,0-2,.89-2,2v38c0,1.11.89,2,2,2h12c1.11,0,2-.89,2-2v-38c0-1.11-.89-2-2-2h-12Zm18,0c-1.11,0-2,.89-2,2v38c0,1.11.89,2,2,2h12c1.11,0,2-.89,2-2v-20c0-1.66.45-3.31,1.25-4.39s1.8-1.73,3.71-1.7c1.97.04,3.02.71,3.8,1.77s1.23,2.65,1.23,4.32v20c0,1.11.89,2,2,2h12c1.11,0,2-.89,2-2v-21.48c0-5.92-1.75-10.61-4.76-13.79s-7.19-4.73-11.61-4.73-7.4,1.41-9.62,2.85v-.85c0-1.11-.89-2-2-2h-12Zm-16,4h8v34h-8v-34Zm18,0h8v3.12c0,.86.55,1.62,1.37,1.89.81.27,1.71,0,2.23-.69,0,0,3.14-4.32,10.03-4.32,3.51,0,6.52,1.16,8.71,3.48s3.66,5.89,3.66,11.04v19.48h-8v-18c0-2.33-.56-4.75-2.02-6.71s-3.92-3.33-6.95-3.38c-3.04-.05-5.54,1.34-7,3.32s-2.03,4.42-2.03,6.76v18h-8v-34Z"/>
  </g>
</svg>