<?xml version="1.0" encoding="UTF-8"?>
<svg id="Layer_1" data-name="Layer 1" xmlns="http://www.w3.org/2000/svg" width="60" height="60" viewBox="0 0 60 60">
  <defs>
    <style>
      .cls-1 {
        fill: #4c4c4c;
      }
    </style>
  </defs>
  <g id="surface213421142">
    <path class="cls-1" d="m7.11,0C3.21,0,0,3.21,0,7.11v45.78c0,3.91,3.21,7.11,7.11,7.11h45.78c3.91,0,7.11-3.21,7.11-7.11V7.11c0-3.91-3.21-7.11-7.11-7.11H7.11Zm0,2.9h45.78c2.4,0,4.31,1.9,4.31,4.31v45.78c0,2.4-1.9,4.31-4.31,4.31H7.11c-2.4,0-4.31-1.9-4.31-4.31V7.11c.1-2.3,2-4.21,4.31-4.21Zm7.21,7.11c-1.6,0-3.01.5-4.01,1.3-1,.9-1.7,2.2-1.7,3.61,0,2.7,2.3,4.71,5.31,4.91h0c.1.2.2.2.4.2,3.21,0,5.71-2.3,5.71-5.01v-.1c-.2-2.7-2.6-4.91-5.71-4.91Zm0,2.8c2,0,2.8.9,2.9,2.2,0,1.2-.8,2.2-2.9,2.2s-2.9-1-2.9-2.2c0-.6.2-1,.7-1.4s1.2-.8,2.2-.8h0Zm-4.31,8.61c-.8,0-1.4.6-1.4,1.4v27.25c0,.8.6,1.4,1.4,1.4h8.61c.8,0,1.4-.6,1.4-1.4v-27.15c0-.8-.6-1.4-1.4-1.4,0-.1-8.61-.1-8.61-.1Zm12.92,0c-.8,0-1.4.6-1.4,1.4v27.25c0,.8.6,1.4,1.4,1.4h8.61c.8,0,1.4-.6,1.4-1.4v-14.32c0-1.2.3-2.4.9-3.11s1.3-1.2,2.6-1.2c1.4,0,2.2.5,2.7,1.3s.9,1.9.9,3.11v14.22c0,.8.6,1.4,1.4,1.4h8.61c.8,0,1.4-.6,1.4-1.4v-15.33c0-4.21-1.2-7.61-3.41-9.92s-5.11-3.41-8.31-3.41-5.31,1-6.91,2v-.6c0-.8-.6-1.4-1.4-1.4,0,0-8.51,0-8.51,0Zm-11.52,2.9h5.71v24.34h-5.71s0-24.34,0-24.34Zm12.92,0h5.71v2.2c0,.6.4,1.2,1,1.3.6.2,1.2,0,1.6-.5,0,0,2.2-3.11,7.21-3.11,2.5,0,4.71.8,6.21,2.5s2.6,4.21,2.6,7.91v13.92h-5.71v-12.82c0-1.7-.4-3.41-1.4-4.81-1-1.4-2.8-2.4-5.01-2.4s-4.01,1-5.01,2.4-1.5,3.21-1.5,4.81v12.92h-5.71v-24.34h0Z"/>
  </g>
</svg>