<svg id="Layer_1" data-name="Layer 1" xmlns="http://www.w3.org/2000/svg" viewBox="0 0 125.47668 59.32896"><defs><style>.cls-1,.cls-2,.cls-3,.cls-4{fill:#010101;stroke:#010101;stroke-miterlimit:10;}.cls-1{stroke-width:0.19624px;}.cls-2{stroke-width:0.16403px;}.cls-3{stroke-width:0.21694px;}.cls-4{stroke-width:0.15328px;}</style></defs><path class="cls-1" d="M660.26362,538.89817l-2.8953-6.705a2.00849,2.00849,0,0,1,.078-1.75316l19.36042-35.72647a2.00849,2.00849,0,0,1,3.65083.26345l2.64,7.176a2.0085,2.0085,0,0,1-.1191,1.65042L663.8734,539.05887A2.00848,2.00848,0,0,1,660.26362,538.89817Z" transform="translate(-657.10563 -482.18659)"/><path class="cls-2" d="M694.8531,539.67015l3.77543-5.35226a1.3097,1.3097,0,0,0,.20543-1.32732L686.38537,507.4775c-.52947-1.08511-2.6432-.76989-3.45947.51592l-3.6113,5.68862a1.27439,1.27439,0,0,0-.15068,1.24558l12.28447,25.17671C691.962,541.15692,693.98645,540.89876,694.8531,539.67015Z" transform="translate(-657.10563 -482.18659)"/><path class="cls-3" d="M711.05676,540.20919,713.742,532.713a2.68563,2.68563,0,0,0-.17176-2.06884L691.47459,486.17c-.93977-1.89157-3.26579-1.99315-3.80689-.16625l-2.394,8.08251a2.71876,2.71876,0,0,0,.20944,1.95353l21.80436,43.88783C708.19916,541.76252,710.44036,541.92993,711.05676,540.20919Z" transform="translate(-657.10563 -482.18659)"/><path class="cls-2" d="M725.12147,539.01838l3.77543-5.35226a1.30969,1.30969,0,0,0,.20543-1.32731l-12.4486-25.51308c-.52946-1.08511-2.64319-.76989-3.45946.51592l-3.61131,5.68862a1.2744,1.2744,0,0,0-.15067,1.24559l12.28447,25.1767C722.23035,540.50516,724.25482,540.247,725.12147,539.01838Z" transform="translate(-657.10563 -482.18659)"/><path class="cls-1" d="M729.638,537.646l4.51556-5.74011a2.00847,2.00847,0,0,1,1.57857-.76667l40.635,0a2.00848,2.00848,0,0,1,1.5078,3.33534l-5.0513,5.74011a2.00851,2.00851,0,0,1-1.5078.68162l-40.09929,0A2.00848,2.00848,0,0,1,729.638,537.646Z" transform="translate(-657.10563 -482.18659)"/><path class="cls-4" d="M752.76932,485.535l2.75486,5.74011a1.1547,1.1547,0,0,0,.96306.76667l24.7907,0c1.05439,0,1.61643-2.0379.91987-3.33535l-3.0817-5.74011a1.11063,1.11063,0,0,0-.91988-.68162l-24.46385,0C752.70958,482.28473,752.13694,484.21738,752.76932,485.535Z" transform="translate(-657.10563 -482.18659)"/><path class="cls-1" d="M729.47962,527.521l-2.89531-6.70495a2.00846,2.00846,0,0,1,.07805-1.75316l19.36041-35.72647a2.00849,2.00849,0,0,1,3.65083.26345l2.64005,7.176a2.0085,2.0085,0,0,1-.11909,1.65042L733.08939,527.6817A2.00848,2.00848,0,0,1,729.47962,527.521Z" transform="translate(-657.10563 -482.18659)"/><path class="cls-2" d="M764.0691,528.293l3.77543-5.35226a1.30968,1.30968,0,0,0,.20542-1.32732l-12.44859-25.51307c-.52946-1.08512-2.6432-.76989-3.45947.51592l-3.6113,5.68862a1.27439,1.27439,0,0,0-.15068,1.24558l12.28447,25.17671C761.178,529.77975,763.20245,529.52159,764.0691,528.293Z" transform="translate(-657.10563 -482.18659)"/></svg>