<?xml version="1.0" encoding="UTF-8"?>
<svg xmlns="http://www.w3.org/2000/svg" xmlns:xlink="http://www.w3.org/1999/xlink" viewBox="0 0 100 100" width="100px" height="100px">
<g id="surface213416318">
<path style=" stroke:none;fill-rule:nonzero;fill:rgb(100%,100%,100%);fill-opacity:1;" d="M 50 4 C 24.617188 4 4 24.617188 4 50 C 4 75.382812 24.617188 96 50 96 C 75.382812 96 96 75.382812 96 50 C 96 24.617188 75.382812 4 50 4 Z M 50 8 C 73.21875 8 92 26.78125 92 50 C 92 73.21875 73.21875 92 50 92 C 45.753906 92 41.65625 91.363281 37.792969 90.195312 C 39.511719 87.320312 41.734375 83.207031 42.617188 79.8125 C 43.140625 77.800781 45.296875 69.589844 45.296875 69.589844 C 46.699219 72.265625 50.789062 74.527344 55.148438 74.527344 C 68.117188 74.527344 77.464844 62.601562 77.464844 47.78125 C 77.464844 33.574219 65.871094 22.945312 50.953125 22.945312 C 32.394531 22.945312 22.542969 35.402344 22.542969 48.964844 C 22.542969 55.273438 25.898438 63.125 31.269531 65.625 C 32.082031 66.003906 32.519531 65.839844 32.707031 65.050781 C 32.851562 64.453125 33.578125 61.535156 33.902344 60.175781 C 34.007812 59.742188 33.957031 59.367188 33.605469 58.941406 C 31.828125 56.785156 30.402344 52.824219 30.402344 49.128906 C 30.402344 39.644531 37.582031 30.464844 49.816406 30.464844 C 60.378906 30.464844 67.777344 37.664062 67.777344 47.960938 C 67.777344 59.59375 61.902344 67.652344 54.261719 67.652344 C 50.042969 67.652344 46.878906 64.160156 47.894531 59.878906 C 49.109375 54.769531 51.457031 49.253906 51.457031 45.5625 C 51.457031 42.261719 49.683594 39.507812 46.015625 39.507812 C 41.699219 39.507812 38.234375 43.96875 38.234375 49.949219 C 38.234375 53.753906 39.523438 56.332031 39.523438 56.332031 C 39.523438 56.332031 35.261719 74.351562 34.480469 77.707031 C 33.699219 81.058594 33.90625 85.574219 34.230469 88.933594 C 18.84375 82.703125 8 67.636719 8 50 C 8 26.78125 26.78125 8 50 8 Z M 50 8 "/>
</g>
</svg>
