<?xml version="1.0" encoding="UTF-8"?>
<svg id="Layer_1" data-name="Layer 1" xmlns="http://www.w3.org/2000/svg" width="92" height="92" viewBox="0 0 92 92">
  <defs>
    <style>
      .cls-1 {
        fill: #4c4c4c;
      }
    </style>
  </defs>
  <g id="surface213416318">
    <path class="cls-1" d="m46,0C20.62,0,0,20.62,0,46s20.62,46,46,46,46-20.62,46-46S71.38,0,46,0Zm0,4c23.22,0,42,18.78,42,42s-18.78,42-42,42c-4.25,0-8.34-.64-12.21-1.8,1.72-2.88,3.94-6.99,4.82-10.38.52-2.01,2.68-10.22,2.68-10.22,1.4,2.68,5.49,4.94,9.85,4.94,12.97,0,22.32-11.93,22.32-26.75s-11.59-24.84-26.51-24.84c-18.56,0-28.41,12.46-28.41,26.02,0,6.31,3.36,14.16,8.73,16.66.81.38,1.25.21,1.44-.57.14-.6.87-3.52,1.2-4.88.11-.43.05-.81-.3-1.23-1.78-2.16-3.2-6.12-3.2-9.81,0-9.48,7.18-18.66,19.41-18.66,10.56,0,17.96,7.2,17.96,17.5,0,11.63-5.88,19.69-13.52,19.69-4.22,0-7.38-3.49-6.37-7.77,1.21-5.11,3.56-10.62,3.56-14.32,0-3.3-1.77-6.05-5.44-6.05-4.32,0-7.78,4.46-7.78,10.44,0,3.8,1.29,6.38,1.29,6.38,0,0-4.26,18.02-5.04,21.38-.78,3.35-.57,7.87-.25,11.23-15.39-6.23-26.23-21.3-26.23-38.93C4,22.78,22.78,4,46,4Z"/>
  </g>
</svg>