<?xml version="1.0" encoding="UTF-8"?>
<svg id="Layer_1" data-name="Layer 1" xmlns="http://www.w3.org/2000/svg" width="650" height="500" viewBox="0 0 650 500">
  <defs>
    <style>
      .cls-1 {
        fill: #f2f2f2;
      }

      .cls-2 {
        fill: #e6e6e6;
      }

      .cls-3 {
        fill: #ccc;
      }

      .cls-4 {
        fill: #106880;
      }

      .cls-5 {
        fill: #3f3d56;
      }

      .cls-6 {
        fill: #2f2e41;
      }
    </style>
  </defs>
  <path class="cls-1" d="m533.67,480.32c2.34.11,3.56-2.67,1.78-4.34l-.22-.67s0-.11.11-.11c2.34-5.56,10.24-5.45,12.47,0,2,4.89,4.67,9.89,5.34,15.01.33,2.33.11,4.67-.33,6.89,4.79-10.45,7.35-21.9,7.35-33.35,0-2.89-.11-5.78-.45-8.67-.22-2.33-.67-4.67-1.11-7-2.56-12.56-8.12-24.46-16.14-34.46-3.9-2.11-7.01-5.45-9.02-9.34-.67-1.45-1.22-3-1.45-4.56.45.11,1.67-6.56,1.34-7,.56-.89,1.67-1.33,2.34-2.33,3.34-4.45,7.9-3.67,10.24,2.45,5.12,2.56,5.12,6.78,2,10.9-2,2.56-2.23,6.11-4.01,8.89.22.22.33.44.56.67,3.34,4.22,6.12,8.78,8.57,13.56-.67-5.34.33-11.67,2-15.79,1.89-4.67,5.57-8.67,8.79-12.67,3.9-4.89,11.8-2.78,12.47,3.45v.22c-.45.22-.89.56-1.45.89-2.56,1.67-1.67,5.78,1.34,6.23h.11c-.22,1.67-.45,3.45-.89,5.11,4.12,15.9-4.79,21.68-17.47,22.01-.33.11-.56.33-.78.44,1.34,3.67,2.34,7.34,3.12,11.12.67,3.34,1.11,6.67,1.45,10.01.33,4.22.33,8.56-.11,12.79v-.11c.89-4.67,3.45-9.01,7.12-12.12,5.45-4.56,13.24-6.23,19.26-9.78,2.89-1.78,6.57.56,6.01,3.78v.11c-.89.33-1.78.78-2.56,1.22-.45.22-.89.56-1.45.89-2.56,1.67-1.67,5.78,1.34,6.23h.22c-1.56,3.56-3.67,6.89-6.23,9.78-2.56,13.9-13.69,15.23-25.49,11.12h0c-1.34,5.67-3.23,11.12-5.57,16.34h-20.03c-.11-.22-.11-.44-.22-.67,1.89.11,3.67,0,5.57-.33-1.45-1.78-3.01-3.67-4.45-5.45l-.11-.11c-.78-.89-1.56-1.89-2.23-2.78h0c-.22-2.78.22-5.67.89-8.45h0Z"/>
  <path class="cls-2" d="m572.76,241.59c-5.34,33.58-33.84,79.71-72.9,124.18h-211.58l22.15-139.64c51.64.22,116.64-15.68,169.07-23.12,57.77-8.23,100.39-6.23,93.27,38.58Z"/>
  <path class="cls-2" d="m180.42,365.77h-111.41c-6.12,0-11.13-5-11.13-11.12v-65.15c2.45-2.56,5.01-5,7.46-7.45,41.52-40.91,76.91-64.71,97.95-24.46,12.47,24.01,18.03,63.26,17.14,108.18Z"/>
  <path class="cls-2" d="m635.42,0H14.58C6.57,0,0,6.56,0,14.56v207.68c0,7.67,6.01,14.01,13.58,14.56h44.52v-2.22H13.58c-6.34-.56-11.35-5.89-11.35-12.34V14.56C2.23,7.78,7.79,2.22,14.58,2.22h620.84c6.79,0,12.35,5.56,12.35,12.34v207.68c0,6.78-5.57,12.34-12.35,12.34h-49.75v2.22h49.75c8.01,0,14.58-6.56,14.58-14.56V14.56c0-8-6.57-14.56-14.58-14.56Z"/>
  <g>
    <ellipse class="cls-4" cx="77.02" cy="57.59" rx="13.91" ry="13.56"/>
    <path class="cls-1" d="m188.21,53.03h-74.68c-2.56,0-4.67-2.11-4.67-4.67s2.11-4.67,4.67-4.67h74.68c2.56,0,4.67,2.11,4.67,4.67s-2.11,4.67-4.67,4.67h0Z"/>
    <path class="cls-1" d="m246.53,68.71H113.53c-2.56,0-4.67-2.11-4.67-4.67s2.11-4.67,4.67-4.67h132.89c2.56,0,4.67,2.11,4.67,4.67s-2,4.67-4.56,4.67h0Z"/>
  </g>
  <path class="cls-5" d="m438.86,120.07c-8.79,0-16.03-7.12-16.03-16.01s7.12-16.01,16.03-16.01,16.03,7.12,16.03,16.01c0,8.89-7.23,16.01-16.03,16.01Zm0-29.68c-7.57,0-13.8,6.11-13.8,13.79s6.12,13.79,13.8,13.79,13.8-6.11,13.8-13.79c0-7.56-6.23-13.79-13.8-13.79Z"/>
  <path class="cls-5" d="m494.07,120.07c-8.79,0-16.03-7.12-16.03-16.01s7.12-16.01,16.03-16.01,16.03,7.12,16.03,16.01-7.12,16.01-16.03,16.01Zm0-29.68c-7.57,0-13.8,6.11-13.8,13.79s6.12,13.79,13.8,13.79,13.8-6.11,13.8-13.79-6.12-13.79-13.8-13.79Z"/>
  <ellipse class="cls-4" cx="494.07" cy="104.17" rx="8.46" ry="8.45"/>
  <path class="cls-5" d="m549.38,120.07c-8.79,0-16.03-7.12-16.03-16.01s7.12-16.01,16.03-16.01,16.03,7.12,16.03,16.01c-.11,8.89-7.23,16.01-16.03,16.01Zm0-29.68c-7.57,0-13.8,6.11-13.8,13.79s6.12,13.79,13.8,13.79,13.8-6.11,13.8-13.79c-.11-7.56-6.23-13.79-13.8-13.79Z"/>
  <path class="cls-1" d="m509.09,365.77H222.83c-7.79-50.92-33.72-112.62-49.31-163.21-17.14-55.7-21.82-98.06,23.6-98.06,48.53,0,129.55,42.47,196.89,98.06,61.66,50.92,111.86,112.84,115.09,163.21h0Z"/>
  <path class="cls-5" d="m574.2,366.88H69.01c-6.79,0-12.24-5.56-12.24-12.23v-191.11c0-6.78,5.57-12.23,12.24-12.23h505.2c6.79,0,12.24,5.56,12.24,12.23v191.11c0,6.78-5.45,12.23-12.24,12.23ZM69.01,153.42c-5.57,0-10.02,4.56-10.02,10.01v191.22c0,5.56,4.56,10.01,10.02,10.01h505.2c5.57,0,10.02-4.56,10.02-10.01v-191.11c0-5.56-4.56-10.01-10.02-10.01H69.01v-.11Z"/>
  <path class="cls-5" d="m546.16,111.51c-.33,0-.56-.11-.78-.33-.45-.44-.33-1.11.11-1.56l6.12-5.56-5.57-6.11c-.45-.44-.33-1.11.11-1.56s1.11-.33,1.56.11l6.34,7c.45.44.33,1.11-.11,1.56l-7.01,6.34c-.22,0-.56.11-.78.11Z"/>
  <path class="cls-5" d="m442.2,111.51c-.22,0-.56-.11-.78-.33l-7.01-6.34c-.45-.44-.45-1.11-.11-1.56l6.34-7c.45-.44,1.11-.44,1.56-.11s.45,1.11.11,1.56l-5.57,6.11,6.12,5.56c.45.44.45,1.11.11,1.56-.22.44-.45.56-.78.56Z"/>
  <path class="cls-3" d="m319.53,498.67c0,.78.56,1.33,1.34,1.33h281.93c.78,0,1.34-.56,1.34-1.33s-.56-1.33-1.34-1.33h-281.93c-.67,0-1.34.56-1.34,1.33Z"/>
  <g>
    <path class="cls-6" d="m371.51,406.06h-57.77c-3.34,0-6.01-4-6.01-9.01v-140.53c0-28.91,15.69-52.25,34.95-52.25s34.95,23.46,34.95,52.25v140.53c-.11,5-2.78,9.01-6.12,9.01Z"/>
    <path class="cls-6" d="m388.98,406.06h-35.06v-198.45l.67.22c20.37,5.56,34.5,24.01,34.5,45.14v153.09h-.11Z"/>
    <path class="cls-4" d="m390.32,229.51c-.45-.22-.78-.56-1.11-.89l-11.13-10.45c-2.67-2.56-2.78-6.78-.33-9.45l87.04-92.61c2.56-2.67,6.79-2.78,9.46-.33l11.13,10.45c2.67,2.56,2.89,6.78.33,9.45h0l-87.04,92.61c-2.11,2.33-5.57,2.89-8.35,1.22h0Z"/>
    <path class="cls-4" d="m278.46,369.7l-14.47-5c-3.56-1.22-5.34-5-4.12-8.56l41.52-120.07c1.22-3.56,5.01-5.34,8.57-4.11l14.47,5h0c3.56,1.22,5.34,5,4.12,8.56l-41.52,120.07c-1,3-4.01,4.89-7.12,4.45-.45-.11-.89-.11-1.45-.33Z"/>
    <path class="cls-6" d="m362.94,220.28l35.62-38.13c2-2.56,5.79-3.11,8.46-1.22l18.92,13.34c2.78,2,3.45,5.89,1.45,8.67-.22.33-.45.67-.78.89l-38.96,36.91c-2.34,2.56-6.23,2.78-8.79.56l-15.47-12.23c-2.45-2.33-2.67-6.23-.45-8.78Z"/>
    <path class="cls-6" d="m335.78,497.44h-15.25c-3.67,0-6.68-3-6.68-6.67v-127.19c0-3.67,3.01-6.67,6.68-6.67h15.25c3.67,0,6.68,3,6.68,6.67v127.08c.11,3.67-2.89,6.67-6.68,6.78Z"/>
    <path class="cls-6" d="m366.05,497.44h-15.25c-3.67,0-6.68-3-6.68-6.67v-127.19c0-3.67,3.01-6.67,6.68-6.67h15.25c3.67,0,6.68,3,6.68,6.67v127.08c0,3.67-3.01,6.67-6.68,6.78Z"/>
    <ellipse class="cls-4" cx="343.35" cy="138.34" rx="55.32" ry="55.26"/>
    <path class="cls-6" d="m308.51,199.38c32.28-69.15,95.72-109.29,95.72-109.29l-23.26-2c-118.87-52.48-86.26,22.12-86.26,22.12-48.86,4.67,8.9,68.15,8.9,68.15l4.9,21.01Z"/>
    <path class="cls-6" d="m302.05,230.4l-21.93,47.25c-1.67,2.89-.78,6.56,2,8.34l19.59,12.45c2.89,1.89,6.68,1,8.57-1.89.22-.33.45-.67.56-1.11l19.59-49.92c1.45-3.11.22-6.78-2.89-8.34l-17.25-9.67c-3.01-1.56-6.68-.22-8.24,2.89Z"/>
    <path class="cls-6" d="m331.1,406.06h-35.17v-153.2c0-21.12,14.14-39.58,34.5-45.14l.67-.22v198.56Z"/>
  </g>
</svg>