<?xml version="1.0" encoding="UTF-8"?>
<svg id="Layer_1" data-name="Layer 1" xmlns="http://www.w3.org/2000/svg" width="650" height="500" viewBox="0 0 650 500">
  <defs>
    <style>
      .cls-1 {
        fill: #e6e6e6;
      }

      .cls-2 {
        fill: #fff;
      }

      .cls-3 {
        fill: #ccc;
      }

      .cls-4 {
        fill: #106880;
      }

      .cls-5 {
        fill: #3f3d56;
      }

      .cls-6 {
        fill: #2f2e41;
      }
    </style>
  </defs>
  <path class="cls-1" d="m200.88,96.08h-2.21v-60.86C198.67,15.77,182.95,0,163.57,0H35.1C15.71,0,0,15.77,0,35.22h0v333.86c0,19.45,15.71,35.22,35.1,35.22h128.47c19.38,0,35.1-15.77,35.1-35.22v-229.68h2.21v-43.32Z"/>
  <path class="cls-2" d="m164.99,9.16h-16.77c2.6,6.39-.46,13.68-6.83,16.29-1.49.61-3.09.93-4.7.93H63.09c-6.88,0-12.45-5.6-12.45-12.5,0-1.62.31-3.22.92-4.72h-15.66c-14.48,0-26.21,11.78-26.21,26.3v333.37c0,14.53,11.73,26.3,26.21,26.3h129.09c14.48,0,26.21-11.78,26.21-26.3h0V35.47c0-14.53-11.73-26.3-26.21-26.3h0Z"/>
  <path id="f3818c68-126c-4685-b4e0-2450731ccc2a-120" class="cls-1" d="m180.54,271H25.76c-1.58,0-2.86-1.29-2.87-2.88v-38.53c0-1.59,1.28-2.87,2.87-2.88h154.79c1.58,0,2.86,1.29,2.87,2.88v38.53c0,1.59-1.28,2.87-2.87,2.88ZM25.76,227.86c-.95,0-1.72.77-1.72,1.73v38.53c0,.95.77,1.73,1.72,1.73h154.79c.95,0,1.72-.77,1.72-1.73v-38.53c0-.95-.77-1.73-1.72-1.73H25.76Z"/>
  <ellipse id="abdb74b7-e321-430b-89c2-b563f66442fc" class="cls-1" cx="45.82" cy="248.85" rx="12.04" ry="12.08"/>
  <path id="addd02b1-b85b-481a-baea-1b0ba5ed9f4a-121" class="cls-1" d="m73.63,240.8c-1.11.02-1.99.93-1.97,2.05.02,1.09.89,1.96,1.97,1.98h94.59c1.11.02,2.02-.86,2.05-1.97.02-1.11-.86-2.03-1.97-2.05h-.01s-.04,0-.07,0h-94.59Z"/>
  <path id="a42dc2a4-5fb2-4ea8-b2b3-ce81bc256782-122" class="cls-1" d="m73.63,252.88c-1.11.02-1.99.93-1.97,2.05.02,1.09.89,1.96,1.97,1.98h94.59c1.11.02,2.02-.87,2.04-1.98s-.87-2.03-1.97-2.05c-.02,0-.04,0-.07,0h-94.59Z"/>
  <path id="b84687c4-e3b4-4975-8361-bf73c33c9ee5-123" class="cls-1" d="m180.54,335.43H25.76c-1.58,0-2.86-1.29-2.87-2.88v-38.53c0-1.59,1.28-2.87,2.87-2.88h154.79c1.58,0,2.86,1.29,2.87,2.88v38.53c0,1.59-1.28,2.87-2.87,2.88Zm-154.79-43.13c-.95,0-1.72.77-1.72,1.73v38.53c0,.95.77,1.73,1.72,1.73h154.79c.95,0,1.72-.77,1.72-1.73v-38.53c0-.95-.77-1.73-1.72-1.73H25.76Z"/>
  <ellipse id="fe3713e7-4e14-41f8-af1d-48b338e5371c" class="cls-1" cx="45.82" cy="313.29" rx="12.04" ry="12.08"/>
  <path id="e34cf46a-1d6c-4c41-b5e1-331fa5bf8d4c-124" class="cls-1" d="m73.63,305.23c-1.11.02-1.99.93-1.97,2.05.02,1.09.89,1.96,1.97,1.98h94.59c1.11.02,2.02-.87,2.04-1.98s-.87-2.03-1.97-2.05h0s-.04,0-.07,0h-94.59Z"/>
  <path id="e105039f-b7a6-49c8-8f81-87505f1b0ae5-125" class="cls-1" d="m73.63,317.32c-1.11.02-1.99.93-1.97,2.05.02,1.09.89,1.96,1.97,1.98h94.59c1.11.02,2.02-.87,2.04-1.98s-.87-2.03-1.97-2.05c-.02,0-.04,0-.07,0h-94.59Z"/>
  <path id="ad9187ec-89e0-4b9d-a4fb-dc654c09bafe-126" class="cls-1" d="m99.89,191.04c-30.07.01-54.45-24.44-54.46-54.61v-.05c0-.11,0-.23,0-.35.17-29.93,24.6-54.31,54.45-54.31,30.08,0,54.45,24.49,54.44,54.67,0,30.17-24.37,54.62-54.43,54.64h-.01Zm0-108.16c-29.3.07-53.07,23.79-53.31,53.19,0,.12,0,.22,0,.31,0,29.55,23.87,53.51,53.32,53.52,29.45,0,53.32-23.95,53.33-53.5,0-29.55-23.87-53.51-53.32-53.52h-.01Z"/>
  <ellipse class="cls-2" cx="155.37" cy="246.78" rx="40.49" ry="40.63"/>
  <rect class="cls-5" x="207.05" y="497.72" width="442.95" height="2.28"/>
  <path class="cls-4" d="m244.77,305.11c-.26-.4-.47-.83-.64-1.28l-5.23-14.05c-1.27-3.42.46-7.22,3.86-8.5l116.65-43.71c3.4-1.27,7.19.46,8.47,3.88l5.23,14.05c1.27,3.42-.46,7.22-3.86,8.49,0,0,0,0,0,0l-116.65,43.71c-2.89,1.08-6.15,0-7.83-2.6h0Z"/>
  <path class="cls-6" d="m359.05,233.95l-47.44,18.98c-3.1.94-4.93,4.16-4.14,7.31l5.51,22.12c.81,3.27,4.11,5.25,7.36,4.44.38-.1.76-.23,1.11-.4l47.57-22.47c3.14-1.18,4.73-4.69,3.57-7.84l-5.72-18.56c-1.18-3.15-4.68-4.76-7.82-3.58Z"/>
  <path class="cls-4" d="m445.86,371.76c-3.07.35-5.97-1.48-6.98-4.41l-40.6-118.13c-1.19-3.45.64-7.21,4.07-8.39,0,0,0,0,0,0l14.12-4.89c3.43-1.19,7.18.64,8.36,4.09l40.61,118.13c1.18,3.45-.64,7.2-4.07,8.39l-14.12,4.89c-.45.16-.92.26-1.39.32Z"/>
  <path class="cls-6" d="m427.87,238l15.58,48.81c1.25,3-.06,6.46-2.99,7.86l-20.51,9.81c-3.03,1.45-6.65.16-8.1-2.88-.17-.36-.31-.73-.4-1.12l-12.99-51.12c-1.09-3.18.59-6.65,3.76-7.75l17.91-7.38c3.17-1.1,6.63.59,7.73,3.78Z"/>
  <path class="cls-6" d="m380.69,498.39h-14.94c-3.63,0-6.58-2.96-6.58-6.6v-124.96c0-3.64,2.95-6.6,6.58-6.6h14.94c3.63,0,6.58,2.96,6.58,6.6v124.96c0,3.64-2.95,6.6-6.58,6.6Z"/>
  <path class="cls-6" d="m410.24,498.39h-14.94c-3.63,0-6.58-2.96-6.58-6.6v-124.96c0-3.64,2.95-6.6,6.58-6.6h14.94c3.63,0,6.58,2.96,6.58,6.6v124.96c0,3.64-2.95,6.6-6.58,6.6Z"/>
  <path class="cls-3" d="m422.55,381.52h-67.88c-3.91,0-7.08-3.19-7.09-7.11v-110.67c0-22.74,18.37-41.17,41.03-41.17s41.03,18.43,41.03,41.17v110.67c0,3.93-3.17,7.11-7.09,7.11Z"/>
  <path class="cls-6" d="m432.77,408.59h-34.42v-195.2l.64.18c19.92,5.49,33.74,23.65,33.78,44.38v150.64Z"/>
  <path class="cls-6" d="m376.07,408.59h-34.42v-150.64c.03-20.73,13.85-38.89,33.78-44.38l.64-.18v195.2Z"/>
  <ellipse class="cls-4" cx="388.09" cy="145.31" rx="54.17" ry="54.37"/>
  <path class="cls-6" d="m449.34,132.79s3.04-84.31-36.44-56.89c0,0-22.78-76.69-78.45,38.09l-16.2,16.25s72.88-10.16,140.7,21.33l-9.62-18.79Z"/>
  <path class="cls-6" d="m388.92,172.24c-3.35-.09-7.51-.21-10.72-2.56-1.93-1.48-3.12-3.73-3.24-6.17-.12-1.73.58-3.42,1.88-4.56,1.68-1.42,4.12-1.75,6.76-.98l-2.73-20.04,2.01-.28,3.21,23.56-1.67-.77c-1.94-.89-4.61-1.35-6.26.06-.82.74-1.26,1.83-1.17,2.94.1,1.81.98,3.49,2.41,4.6,2.5,1.83,5.82,2.07,9.58,2.17l-.06,2.03Z"/>
  <rect class="cls-6" x="360.05" y="139.65" width="10.9" height="2.03"/>
  <rect class="cls-6" x="394.47" y="139.65" width="10.9" height="2.03"/>
  <path class="cls-4" d="m181.91,286.68c-2.24,0-4.05-1.82-4.05-4.06v-51.76s-50.61,0-50.61,0c-2.24,0-4.05-1.82-4.05-4.06s1.81-4.06,4.05-4.06h54.66c2.24,0,4.05,1.82,4.05,4.06v55.82c0,2.24-1.81,4.06-4.05,4.06Z"/>
  <rect class="cls-4" x="112.32" y="235.6" width="52.99" height="12.47" rx="6.1" ry="6.1"/>
  <path class="cls-5" d="m279.15,296.48c-1.14,3.17-4.62,4.81-7.77,3.66l-78.08-28.27c-3.16-1.14-4.79-4.64-3.65-7.8,1.14-3.17,4.62-4.81,7.77-3.66l78.08,28.27c3.16,1.14,4.79,4.64,3.65,7.8Z"/>
  <path class="cls-5" d="m201.08,268.21c-9.11,25.33-36.95,38.46-62.19,29.32-25.24-9.14-38.32-37.08-29.22-62.41,9.11-25.33,36.95-38.46,62.19-29.32,25.22,9.16,38.29,37.08,29.22,62.41Zm-79.98-28.96c-6.83,19,2.98,39.96,21.91,46.81,18.93,6.85,39.81-2.99,46.64-21.99,6.83-19-2.98-39.96-21.91-46.81-18.93-6.83-39.8,3.01-46.64,21.99h0Z"/>
</svg>