<?xml version="1.0" encoding="UTF-8"?>
<svg id="Layer_1" data-name="Layer 1" xmlns="http://www.w3.org/2000/svg" width="650" height="500" viewBox="0 0 650 500">
  <defs>
    <style>
      .cls-1 {
        fill: #f0f0f0;
      }

      .cls-2 {
        fill: #fff;
      }

      .cls-3 {
        fill: #e4e4e4;
      }

      .cls-4 {
        fill: #cacaca;
      }

      .cls-5 {
        fill: #106880;
      }
    </style>
  </defs>
  <path class="cls-1" d="m38.4,347.74c-19.18-6.97-35.84-23.64-37.95-43.92,18.62,12.07,40.92,17.17,62.95,14.39,8.49-1.1,17.82-3.21,25.08,1.32,4.52,2.81,7.33,7.81,8.62,12.97,1.29,5.16,1.23,10.55,1.16,15.87l.6,1.19c-20.04,3.88-41.27,5.15-60.46-1.82Z"/>
  <path class="cls-2" d="m.87,303.72c9.78,13.76,23.65,24.1,39.64,29.54,3.42,1.23,7.02,1.92,10.65,2.03,3.55,0,7.03-.95,10.08-2.75,2.88-1.62,5.64-3.61,8.86-4.51,3.35-.88,6.92-.28,9.81,1.63,3.62,2.27,6.2,5.7,8.61,9.14,2.68,3.82,5.4,7.84,9.58,10.16.51.28.04,1.05-.47.77-7.27-4.04-9.97-12.6-16.16-17.81-2.89-2.43-6.53-4-10.34-3.22-3.34.69-6.18,2.74-9.09,4.4-2.95,1.8-6.3,2.85-9.76,3.06-3.63.07-7.25-.48-10.69-1.62-7.8-2.44-15.17-6.1-21.83-10.83-7.64-5.36-14.3-11.98-19.7-19.58-.33-.47.46-.9.79-.43h0Z"/>
  <path class="cls-2" d="m35.26,331.82c-2.64,5.28-8.72,7.87-14.37,6.12-.55-.17-.31-1.04.24-.86,5.25,1.64,10.92-.79,13.35-5.72.26-.52,1.02-.05.77.47h0Z"/>
  <path class="cls-2" d="m59.89,333.56c-1.8-5.56-5.63-10.23-10.73-13.09-.51-.28-.04-1.05.47-.77,5.3,2.99,9.28,7.86,11.14,13.65.18.55-.7.76-.87.21h0Z"/>
  <path class="cls-2" d="m13.16,317.75c1.42-1.8,1.85-4.19,1.12-6.37-.18-.55.69-.76.87-.21.79,2.41.33,5.05-1.23,7.05-.13.21-.4.27-.62.15-.21-.13-.28-.4-.15-.62h0Z"/>
  <path class="cls-1" d="m48.87,254.57c.12.34.25.68.38,1.02,1.7,4.56,3.77,8.97,6.18,13.19.18.33.37.66.56.98,5.93,10.11,13.68,19.04,22.87,26.32,3.66,2.9,7.53,5.51,11.59,7.82,5.6,3.19,11.93,6.2,16.03,10.91.43.49.84,1,1.21,1.54l-7.43,32.4c-.05.07-.1.13-.15.2l-.24,1.31c-.22-.1-.44-.22-.66-.32-.13-.06-.25-.13-.38-.19-.08-.04-.17-.09-.25-.12-.03-.01-.06-.03-.08-.04-.08-.03-.15-.07-.22-.1-1.25-.63-2.5-1.27-3.74-1.91t-.01-.01c-9.54-4.85-18.47-10.81-26.61-17.76-.24-.21-.49-.42-.72-.65-3.58-3.17-6.89-6.64-9.9-10.35-1.64-2.04-3.18-4.16-4.61-6.35-3.68-5.68-6.44-11.9-8.19-18.43-3.48-13.03-2.75-27.02,3.85-38.58.17-.3.34-.58.51-.88Z"/>
  <path class="cls-2" d="m49.27,254.73c-.49,16.87,4.35,33.46,13.84,47.42,1.99,3.04,4.45,5.75,7.28,8.03,2.83,2.13,6.19,3.46,9.71,3.86,3.28.44,6.68.51,9.8,1.73,3.21,1.32,5.7,3.94,6.84,7.2,1.52,3.99,1.52,8.28,1.37,12.48-.17,4.66-.41,9.5,1.52,13.87.23.53-.6.86-.84.33-3.37-7.6-.36-16.05-2.16-23.93-.84-3.68-2.8-7.12-6.32-8.79-3.08-1.46-6.59-1.53-9.91-1.95-3.44-.34-6.75-1.51-9.63-3.42-2.94-2.13-5.5-4.74-7.56-7.72-4.75-6.64-8.43-13.99-10.9-21.77-2.87-8.87-4.19-18.16-3.92-27.48.02-.58.91-.44.89.13h0Z"/>
  <path class="cls-2" d="m59.79,297.84c-5.29,2.63-11.71,1.04-15.16-3.75-.34-.47.38-1.01.72-.54,3.21,4.47,9.19,5.94,14.11,3.46.52-.26.85.58.33.83h0Z"/>
  <path class="cls-2" d="m78.41,314.04c1.91-5.52,1.67-11.56-.68-16.91-.23-.53.6-.86.84-.33,2.43,5.57,2.67,11.85.67,17.59-.19.55-1.02.19-.83-.35Z"/>
  <path class="cls-2" d="m50.62,273.32c2.22-.58,4-2.24,4.74-4.41.18-.55,1.01-.19.83.35-.82,2.4-2.78,4.23-5.23,4.89-.23.08-.49-.03-.58-.25-.09-.23.02-.49.25-.58h0Z"/>
  <path class="cls-1" d="m617.28,289.15c18.18-9.27,32.66-27.86,32.26-48.24-17,14.26-38.5,22.06-60.7,22.01-8.56-.05-18.08-.99-24.73,4.39-4.14,3.35-6.31,8.65-6.95,13.93-.64,5.28.08,10.62.8,15.89l-.45,1.25c20.37,1.4,41.59.04,59.77-9.23Z"/>
  <path class="cls-2" d="m649.11,240.86c-8.01,14.86-20.5,26.82-35.7,34.19-3.24,1.64-6.73,2.77-10.32,3.33-3.52.43-7.09-.08-10.34-1.5-3.06-1.26-6.04-2.89-9.35-3.38-3.44-.46-6.9.57-9.53,2.83-3.31,2.69-5.45,6.42-7.42,10.13-2.19,4.12-4.39,8.44-8.26,11.25-.47.34.09,1.05.56.71,6.72-4.9,8.34-13.73,13.84-19.66,2.57-2.77,5.99-4.78,9.87-4.46,3.4.27,6.47,1.96,9.56,3.26,3.15,1.42,6.61,2.06,10.06,1.84,3.61-.38,7.13-1.36,10.41-2.92,7.44-3.38,14.3-7.92,20.33-13.43,6.92-6.25,12.71-13.64,17.14-21.85.27-.51-.57-.83-.84-.33h0Z"/>
  <path class="cls-2" d="m618.44,272.96c3.27,4.91,9.62,6.74,15.01,4.31.53-.24.18-1.07-.35-.83-5.01,2.27-10.93.56-13.95-4.04-.32-.48-1.02.08-.71.56Z"/>
  <path class="cls-2" d="m594.21,277.71c1.1-5.74,4.33-10.85,9.04-14.31.47-.34-.09-1.05-.56-.71-4.89,3.61-8.24,8.94-9.38,14.91-.11.57.79.67.89.11h0Z"/>
  <path class="cls-2" d="m638.64,256.29c-1.63-1.61-2.35-3.94-1.9-6.19.11-.57-.78-.67-.89-.11-.48,2.49.3,5.05,2.09,6.85.16.19.43.22.63.07.19-.15.23-.44.07-.63h0Z"/>
  <path class="cls-1" d="m595.42,197.96c-.08.35-.16.7-.25,1.06-1.13,4.73-2.63,9.36-4.51,13.85-.14.35-.29.7-.44,1.05-4.64,10.76-11.24,20.57-19.46,28.93-3.28,3.32-6.8,6.39-10.54,9.18-5.17,3.85-11.08,7.62-14.57,12.8-.37.54-.71,1.09-1.01,1.67l11.36,31.24c.06.06.12.12.18.18l.4,1.27c.2-.13.41-.27.61-.4.12-.08.23-.16.35-.23.08-.05.16-.1.23-.15.03-.02.05-.03.07-.05.07-.04.14-.09.2-.13,1.16-.78,2.32-1.56,3.48-2.36t.01-.01c8.87-5.98,17-12.99,24.22-20.89.21-.24.43-.48.64-.73,3.16-3.59,6.02-7.43,8.55-11.49,1.38-2.22,2.65-4.52,3.79-6.87,2.95-6.08,4.93-12.6,5.86-19.29,1.85-13.35-.6-27.15-8.57-37.81-.2-.27-.41-.54-.62-.81Z"/>
  <path class="cls-2" d="m595.05,198.18c2.56,16.68-.2,33.74-7.9,48.76-1.6,3.26-3.7,6.25-6.24,8.86-2.55,2.46-5.71,4.2-9.16,5.02-3.2.84-6.57,1.32-9.51,2.92-3.02,1.7-5.17,4.61-5.91,7.99-1.02,4.14-.49,8.4.18,12.55.74,4.61,1.58,9.38.19,13.95-.17.55.7.78.87.23,2.41-7.95-1.62-15.98-.8-24.02.38-3.75,1.9-7.41,5.19-9.5,2.88-1.83,6.35-2.33,9.6-3.15,3.38-.76,6.51-2.33,9.14-4.58,2.66-2.47,4.87-5.38,6.56-8.59,3.9-7.18,6.65-14.92,8.14-22.95,1.75-9.15,1.93-18.54.51-27.75-.09-.57-.95-.33-.87.24h0Z"/>
  <path class="cls-2" d="m589.91,242.25c5.57,1.96,11.75-.41,14.58-5.58.28-.51-.5-.96-.78-.45-2.63,4.83-8.39,7.02-13.58,5.17-.55-.19-.77.68-.23.87h0Z"/>
  <path class="cls-2" d="m573.43,260.62c-2.58-5.24-3.08-11.26-1.41-16.86.17-.55-.7-.78-.87-.23-1.73,5.83-1.19,12.09,1.5,17.54.26.52,1.03.06.78-.45h0Z"/>
  <path class="cls-2" d="m595.99,216.79c-2.28-.3-4.25-1.73-5.25-3.8-.25-.52-1.03-.07-.78.45,1.11,2.28,3.28,3.85,5.79,4.21.24.05.48-.09.55-.32.06-.24-.08-.48-.32-.55h0Z"/>
  <path class="cls-2" d="m565.97,63.26h-128.09v8.23c0,.42.14.83.41,1.16-.26,6.43-.41,14.64-.41,23.57v220.01c0,20.62.83,37.4,1.84,37.4h124.4c1.02,0,1.84-16.78,1.84-37.4V96.21c0-8.92-.15-17.13-.41-23.57.27-.33.41-.74.41-1.16v-8.23Z"/>
  <path class="cls-3" d="m564.12,296.59h-124.4c-.97,0-1.61,0-2.19-11.81-.35-7.09-.54-16.49-.54-26.48V38.29c0-8.62.15-17.01.41-23.6.17-3.96.36-7.13.56-9.43.41-4.5.8-5.26,1.76-5.26h124.4c.96,0,1.35.76,1.76,5.26.21,2.31.4,5.48.56,9.43h0c.26,6.59.41,14.97.41,23.6v220.01c0,9.99-.19,19.39-.54,26.48-.58,11.81-1.22,11.81-2.19,11.81Zm-123.9-1.78h123.39c.64-2.43,1.46-15.63,1.46-36.51V38.29c0-8.61-.15-16.96-.41-23.53h0c-.16-3.92-.35-7.07-.56-9.34-.08-1.22-.25-2.44-.5-3.64h-123.37c-.25,1.2-.42,2.42-.5,3.64-.21,2.27-.39,5.41-.56,9.34-.26,6.57-.41,14.93-.41,23.53v220.01c0,20.88.81,34.08,1.46,36.51Z"/>
  <path class="cls-4" d="m564.12.89h-124.4c-1.02,0-1.84.83-1.84,1.84v10.84c0,.42.14.83.41,1.16.35.43.88.68,1.43.69h124.4c.56,0,1.08-.25,1.43-.69.27-.33.41-.74.41-1.16V2.73c0-1.02-.83-1.84-1.84-1.84Z"/>
  <circle id="b800b2fc-3bcc-4a40-9972-a80335d602c8" class="cls-2" cx="448.58" cy="7.62" r="2.62"/>
  <circle id="fa63cc97-e384-451c-9b8c-3b6845b8b0f6" class="cls-2" cx="458.52" cy="7.62" r="2.62"/>
  <circle id="beaeadfc-8efd-4e6c-adaf-945ac9d4d623" class="cls-2" cx="468.46" cy="7.62" r="2.62"/>
  <path class="cls-2" d="m554.39,4.13h-11.45c-.47,0-.84.38-.85.85,0,.13.03.25.09.36.14.29.43.48.76.48h11.45c.33,0,.63-.19.77-.48.05-.11.08-.24.08-.36,0-.47-.38-.84-.85-.85h0Z"/>
  <path class="cls-2" d="m554.39,7.3h-11.45c-.47,0-.85.38-.84.85,0,.47.38.84.84.84h11.45c.47,0,.85-.38.85-.84,0-.47-.38-.85-.84-.85h0Z"/>
  <path class="cls-2" d="m554.39,10.48h-11.45c-.47,0-.85.38-.84.85,0,.47.38.84.84.84h11.45c.47,0,.85-.38.85-.84,0-.47-.38-.85-.84-.85h0Z"/>
  <path class="cls-5" d="m514.3,39.16h-23.55c-2.46,0-4.45,1.99-4.45,4.45v20.37c0,2.45,2,4.44,4.45,4.45h23.55c2.46,0,4.45-1.99,4.45-4.45v-20.37c0-2.46-2-4.44-4.45-4.45Z"/>
  <path class="cls-3" d="m543.56,81.74h-82.09c-1.12,0-2.02.9-2.02,2.02s.91,2.02,2.02,2.02h82.09c1.12,0,2.02-.9,2.02-2.02s-.91-2.02-2.02-2.02Z"/>
  <path class="cls-3" d="m492.65,91.21h-31.18c-1.12,0-2.02.9-2.02,2.02s.91,2.02,2.02,2.02h31.18c1.12,0,2.02-.9,2.02-2.02s-.91-2.02-2.02-2.02h0Z"/>
  <path class="cls-5" d="m514.3,127.24h-23.55c-2.46,0-4.45,1.99-4.45,4.45v20.37c0,2.45,2,4.44,4.45,4.45h23.55c2.46,0,4.45-1.99,4.45-4.45v-20.37c0-2.46-2-4.44-4.45-4.45Z"/>
  <path class="cls-3" d="m543.56,169.82h-82.09c-1.12,0-2.02.9-2.02,2.02s.91,2.02,2.02,2.02h82.09c1.12,0,2.02-.9,2.02-2.02s-.91-2.02-2.02-2.02Z"/>
  <path class="cls-3" d="m492.65,179.28h-31.18c-1.12,0-2.02.9-2.02,2.02s.91,2.02,2.02,2.02h31.18c1.12,0,2.02-.9,2.02-2.02s-.91-2.02-2.02-2.02h0Z"/>
  <path class="cls-5" d="m514.3,215.31h-23.55c-2.46,0-4.45,1.99-4.45,4.45v20.37c0,2.45,2,4.44,4.45,4.45h23.55c2.46,0,4.45-1.99,4.45-4.45v-20.37c0-2.46-2-4.44-4.45-4.45Z"/>
  <path class="cls-3" d="m543.56,257.89h-82.09c-1.12,0-2.02.9-2.03,2.01s.9,2.02,2.02,2.03h82.1c1.12,0,2.02-.9,2.03-2.01s-.9-2.02-2.02-2.03h-.01Z"/>
  <path class="cls-3" d="m492.65,267.36h-31.18c-1.12,0-2.02.9-2.03,2.01s.9,2.02,2.02,2.03h31.19c1.12,0,2.02-.9,2.03-2.01s-.9-2.02-2.02-2.03h-.01Z"/>
  <path class="cls-2" d="m404.73,52.65c0-1.02-.83-1.84-1.84-1.84H73.59c-1.02,0-1.84.83-1.84,1.84v10.84c0,.45.17.89.47,1.22-.29,7.36-.47,17.05-.47,27.68v244.57c0,22.94.83,41.58,1.84,41.58h329.29c1.02,0,1.84-18.65,1.84-41.58V92.38c0-10.62-.18-20.32-.47-27.68.31-.33.47-.77.47-1.22v-10.84Z"/>
  <path class="cls-3" d="m402.88,379.42H73.59c-1.01,0-1.61,0-2.19-13.04-.35-7.88-.54-18.33-.54-29.43V92.38c0-10.24.17-20.08.47-27.71.59-14.75,1.25-14.75,2.26-14.75h329.29c1.01,0,1.68,0,2.26,14.75h0c.3,7.63.47,17.47.47,27.71v244.57c0,11.1-.19,21.55-.54,29.43-.58,13.04-1.19,13.04-2.19,13.04Zm-328.77-1.78h328.25c.73-2.79,1.47-18.45,1.47-40.69V92.38c0-10.22-.17-20.04-.47-27.64h0c-.37-9.34-.8-12.19-1.01-13.04H74.12c-.21.85-.64,3.7-1.01,13.04-.3,7.61-.47,17.43-.47,27.64v244.57c0,22.24.74,37.9,1.47,40.69Z"/>
  <path class="cls-4" d="m402.88,50.81H73.59c-1.02,0-1.84.83-1.84,1.84v10.84c0,.45.17.89.47,1.22.35.4.85.62,1.37.62h329.29c.53,0,1.03-.23,1.37-.62.31-.33.47-.77.47-1.22v-10.84c0-1.02-.83-1.84-1.84-1.84Z"/>
  <circle id="b7005a6f-2f7f-4001-b097-d8b6c117468f" class="cls-2" cx="82.45" cy="57.54" r="2.62"/>
  <circle id="a0adf4f5-8105-4330-a35a-c3adb8f4e7bc" class="cls-2" cx="92.39" cy="57.54" r="2.62"/>
  <circle id="a64b73a5-7207-44c1-bcaf-f99ab7b9c6dc" class="cls-2" cx="102.33" cy="57.54" r="2.62"/>
  <path class="cls-2" d="m391.37,54.04h-11.45c-.47,0-.85.38-.84.85,0,.47.38.84.84.84h11.45c.47,0,.85-.38.85-.84,0-.47-.38-.85-.84-.85h0Z"/>
  <path class="cls-2" d="m391.37,57.22h-11.45c-.47,0-.85.38-.84.85,0,.47.38.84.84.84h11.45c.47,0,.85-.38.85-.84,0-.47-.38-.85-.84-.85h0Z"/>
  <path class="cls-2" d="m391.37,60.4h-11.45c-.47,0-.85.38-.84.85,0,.47.38.84.84.84h11.45c.47,0,.85-.38.85-.84,0-.47-.38-.85-.84-.85h0Z"/>
  <path class="cls-5" d="m180.03,105.09h-38.54c-4.02,0-7.28,3.26-7.29,7.28v33.33c0,4.02,3.26,7.27,7.29,7.28h38.54c4.02,0,7.28-3.26,7.29-7.28v-33.33c0-4.02-3.26-7.27-7.29-7.28Z"/>
  <path class="cls-3" d="m338.98,117.98h-134.32c-1.83,0-3.31,1.48-3.3,3.31,0,1.82,1.48,3.3,3.3,3.3h134.32c1.83,0,3.31-1.48,3.3-3.31,0-1.82-1.48-3.3-3.3-3.3Z"/>
  <path class="cls-3" d="m255.67,133.47h-51.02c-1.83,0-3.31,1.48-3.3,3.31,0,1.82,1.48,3.3,3.3,3.3h51.02c1.83,0,3.31-1.48,3.3-3.31,0-1.82-1.48-3.3-3.3-3.3Z"/>
  <path class="cls-5" d="m180.03,194.06h-38.54c-4.02,0-7.28,3.26-7.29,7.28v33.33c0,4.02,3.26,7.27,7.29,7.28h38.54c4.02,0,7.28-3.26,7.29-7.28v-33.33c0-4.02-3.26-7.27-7.29-7.28Z"/>
  <path class="cls-3" d="m338.98,206.95h-134.32c-1.83,0-3.31,1.48-3.3,3.31,0,1.82,1.48,3.3,3.3,3.3h134.32c1.83,0,3.31-1.48,3.3-3.31,0-1.82-1.48-3.3-3.3-3.3Z"/>
  <path class="cls-3" d="m255.67,222.44h-51.02c-1.83,0-3.31,1.48-3.3,3.31,0,1.82,1.48,3.3,3.3,3.3h51.02c1.83,0,3.31-1.48,3.3-3.31,0-1.82-1.48-3.3-3.3-3.3Z"/>
  <path class="cls-5" d="m180.03,283.02h-38.54c-4.02,0-7.28,3.26-7.29,7.28v33.33c0,4.02,3.26,7.27,7.29,7.28h38.54c4.02,0,7.28-3.26,7.29-7.28v-33.33c0-4.02-3.26-7.27-7.29-7.28Z"/>
  <path class="cls-3" d="m338.98,295.91h-134.32c-1.83,0-3.31,1.48-3.3,3.31,0,1.82,1.48,3.3,3.3,3.3h134.32c1.83,0,3.31-1.48,3.3-3.31,0-1.82-1.48-3.3-3.3-3.3Z"/>
  <path class="cls-3" d="m255.67,311.4h-51.02c-1.83,0-3.31,1.48-3.3,3.31,0,1.82,1.48,3.3,3.3,3.3h51.02c1.83,0,3.31-1.48,3.3-3.31,0-1.82-1.48-3.3-3.3-3.3Z"/>
  <path class="cls-3" d="m459.9,500h-220.61c-.93,0-1.61,0-2.19-11.05-.35-6.6-.54-15.35-.54-24.65v-204.74c0-9.3.19-18.05.54-24.65.59-11.05,1.26-11.05,2.19-11.05h220.61c.93,0,1.61,0,2.19,11.05.35,6.6.54,15.35.54,24.65v204.74c0,9.3-.19,18.05-.54,24.65-.59,11.05-1.26,11.05-2.19,11.05Zm-220.12-1.78h219.63c.64-2.3,1.45-14.58,1.45-33.92v-204.74c0-19.33-.81-31.61-1.45-33.92h-219.63c-.64,2.3-1.45,14.58-1.45,33.92v204.74c0,19.33.81,31.61,1.45,33.92Z"/>
  <g>
    <path class="cls-2" d="m459.9,498.22h-220.61c-1.02,0-1.84-15.61-1.84-34.81v-204.74c0-19.19.83-34.81,1.84-34.81h220.61c1.02,0,1.84,15.61,1.84,34.81v204.74c0,19.19-.83,34.81-1.84,34.81Z"/>
    <path class="cls-4" d="m459.9,238.39h-220.61c-1.02,0-1.84-.83-1.84-1.84v-10.84c0-1.02.83-1.84,1.84-1.84h220.61c1.02,0,1.84.83,1.84,1.84v10.84c0,1.02-.83,1.84-1.84,1.84Z"/>
    <circle id="a9432236-99f6-4733-9920-e312ad95354d" class="cls-2" cx="248.15" cy="230.6" r="2.62"/>
    <circle id="fc8d1cb9-e477-4d66-a241-a00170356ca4" class="cls-2" cx="258.09" cy="230.6" r="2.62"/>
    <circle id="bc1189a4-69b8-41a6-80e2-1e52c3b8abfb" class="cls-2" cx="268.03" cy="230.6" r="2.62"/>
    <path class="cls-2" d="m450.16,228.8h-11.45c-.47,0-.85-.38-.85-.85s.38-.85.85-.85h11.45c.47,0,.85.38.84.85,0,.46-.38.84-.84.84Z"/>
    <path class="cls-2" d="m450.16,231.98h-11.45c-.47,0-.85-.38-.85-.85s.38-.85.85-.85h11.45c.47,0,.85.38.85.85s-.38.85-.85.85h0Z"/>
    <path class="cls-2" d="m450.16,235.15h-11.45c-.47,0-.85-.38-.85-.85s.38-.85.85-.85h11.45c.47,0,.85.38.84.85,0,.46-.38.84-.84.84Z"/>
    <path class="cls-5" d="m307.08,305.65h-28.14c-2.94,0-5.32-2.38-5.32-5.32v-24.34c0-2.93,2.38-5.31,5.32-5.32h28.14c2.94,0,5.32,2.38,5.32,5.32v24.34c0,2.93-2.38,5.31-5.32,5.32Z"/>
    <path class="cls-3" d="m423.16,284.92h-98.09c-1.33,0-2.42-1.08-2.42-2.41s1.08-2.41,2.42-2.41h98.09c1.33,0,2.42,1.08,2.42,2.41s-1.08,2.41-2.42,2.41Z"/>
    <path class="cls-3" d="m362.32,296.23h-37.26c-1.33,0-2.42-1.08-2.42-2.41,0-1.33,1.08-2.41,2.41-2.42h37.26c1.33,0,2.42,1.07,2.42,2.41,0,1.33-1.07,2.42-2.41,2.42,0,0,0,0-.01,0h0Z"/>
    <path class="cls-5" d="m307.08,377.71h-28.14c-2.94,0-5.32-2.38-5.32-5.32v-24.34c0-2.93,2.38-5.31,5.32-5.32h28.14c2.94,0,5.32,2.38,5.32,5.32v24.34c0,2.93-2.38,5.31-5.32,5.32Z"/>
    <path class="cls-3" d="m423.16,356.98h-98.09c-1.33,0-2.42-1.08-2.42-2.41s1.08-2.41,2.42-2.41h98.09c1.33,0,2.42,1.08,2.42,2.41s-1.08,2.41-2.42,2.41Z"/>
    <path class="cls-3" d="m362.32,368.29h-37.26c-1.33,0-2.42-1.08-2.42-2.41s1.08-2.41,2.42-2.41h37.26c1.33,0,2.42,1.08,2.42,2.41s-1.08,2.41-2.42,2.41h0Z"/>
    <path class="cls-5" d="m307.08,449.77h-28.14c-2.94,0-5.32-2.38-5.32-5.32v-24.34c0-2.93,2.38-5.31,5.32-5.32h28.14c2.94,0,5.32,2.38,5.32,5.32v24.34c0,2.93-2.38,5.31-5.32,5.32Z"/>
    <path class="cls-3" d="m423.16,429.04h-98.09c-1.33,0-2.42-1.08-2.42-2.41s1.08-2.41,2.42-2.41h98.09c1.33,0,2.42,1.08,2.42,2.41s-1.08,2.41-2.42,2.41Z"/>
    <path class="cls-3" d="m362.32,440.35h-37.26c-1.33,0-2.42-1.08-2.42-2.41s1.08-2.41,2.42-2.41h37.26c1.33,0,2.42,1.08,2.42,2.41s-1.08,2.41-2.42,2.41h0Z"/>
  </g>
</svg>