<svg id="Group_136" data-name="Group 136" xmlns="http://www.w3.org/2000/svg" xmlns:xlink="http://www.w3.org/1999/xlink" width="111" height="65.777" viewBox="0 0 111 65.777">
  <defs>
    <clipPath id="clip-path">
      <rect id="Rectangle_141" data-name="Rectangle 141" width="111" height="65.777" fill="none"/>
    </clipPath>
  </defs>
  <g id="Group_135" data-name="Group 135" clip-path="url(#clip-path)">
    <path id="Path_408" data-name="Path 408" d="M28.125,58.865h86.946V4.276A4.276,4.276,0,0,0,110.795,0H32.4a4.276,4.276,0,0,0-4.276,4.276Z" transform="translate(-16.098)" fill="#106880"/>
    <path id="Path_409" data-name="Path 409" d="M2.138,147.214H108.862A2.138,2.138,0,0,0,111,145.076v-.661a2.138,2.138,0,0,0-2.138-2.138H2.138A2.138,2.138,0,0,0,0,144.415v.661a2.138,2.138,0,0,0,2.138,2.138" transform="translate(0 -81.437)" fill="#106880"/>
    <path id="Path_410" data-name="Path 410" d="M60.05,56.748l14.758-9.584a1.283,1.283,0,1,0-1.4-2.152L58.652,54.6a1.283,1.283,0,0,0,1.4,2.152" transform="translate(-33.237 -25.646)" fill="#70cce5"/>
    <path id="Path_411" data-name="Path 411" d="M58.652,69.7,73.41,79.282a1.283,1.283,0,1,0,1.4-2.152L60.049,67.546a1.283,1.283,0,0,0-1.4,2.152" transform="translate(-33.237 -38.544)" fill="#70cce5"/>
    <path id="Path_412" data-name="Path 412" d="M178.507,56.748,163.75,47.164a1.283,1.283,0,1,1,1.4-2.152L179.9,54.6a1.283,1.283,0,1,1-1.4,2.152" transform="translate(-93.393 -25.646)" fill="#70cce5"/>
    <path id="Path_413" data-name="Path 413" d="M179.9,69.7l-14.758,9.584a1.283,1.283,0,0,1-1.4-2.152l14.758-9.584a1.283,1.283,0,1,1,1.4,2.152" transform="translate(-93.393 -38.544)" fill="#70cce5"/>
    <path id="Path_414" data-name="Path 414" d="M117.19,62.97l10.744-24.133a1.283,1.283,0,1,0-2.344-1.043L114.846,61.926a1.283,1.283,0,0,0,2.344,1.043" transform="translate(-65.672 -21.196)" fill="#70cce5"/>
  </g>
</svg>
