<?xml version="1.0" encoding="UTF-8"?>
<svg id="Layer_1" data-name="Layer 1" xmlns="http://www.w3.org/2000/svg" width="650" height="500" viewBox="0 0 650 500">
  <defs>
    <style>
      .cls-1 {
        fill: #f2f2f2;
      }

      .cls-2 {
        fill: #e6e6e6;
      }

      .cls-3 {
        fill: #fff;
      }

      .cls-4 {
        fill: #ccc;
      }

      .cls-5 {
        fill: #106880;
      }

      .cls-6 {
        fill: #3f3d56;
      }

      .cls-7 {
        fill: #2f2e41;
      }
    </style>
  </defs>
  <path class="cls-2" d="m392.49,223.62h-178.93c-5.91,0-10.75-4.83-10.75-10.74v-78.32c0-5.91,4.84-10.74,10.75-10.74h178.93c5.91,0,10.75,4.83,10.75,10.74v78.32c0,5.91-4.84,10.74-10.75,10.74Z"/>
  <ellipse class="cls-5" cx="13.05" cy="18.41" rx="13.05" ry="13.04"/>
  <path class="cls-6" d="m16.89,27.62c-7.6,0-13.82-6.21-13.82-13.81S9.29,0,16.89,0s13.82,6.21,13.82,13.81-6.22,13.81-13.82,13.81Zm0-26.08c-6.76,0-12.29,5.52-12.29,12.27s5.53,12.27,12.29,12.27,12.29-5.52,12.29-12.27S23.65,1.53,16.89,1.53Z"/>
  <ellipse class="cls-2" cx="172.01" cy="182.58" rx="13.05" ry="13.04"/>
  <path class="cls-6" d="m175.85,191.78c-7.6,0-13.82-6.21-13.82-13.81s6.22-13.81,13.82-13.81,13.82,6.21,13.82,13.81-6.22,13.81-13.82,13.81Zm0-26.08c-6.76,0-12.29,5.52-12.29,12.27s5.53,12.27,12.29,12.27,12.29-5.52,12.29-12.27-5.53-12.27-12.29-12.27Z"/>
  <ellipse class="cls-5" cx="273.38" cy="83.62" rx="13.05" ry="13.04"/>
  <path class="cls-6" d="m277.22,92.82c-7.6,0-13.82-6.21-13.82-13.81s6.22-13.81,13.82-13.81,13.82,6.21,13.82,13.81-6.22,13.81-13.82,13.81Zm0-26.08c-6.76,0-12.29,5.52-12.29,12.27s5.53,12.27,12.29,12.27,12.29-5.52,12.29-12.27-5.53-12.27-12.29-12.27Z"/>
  <path class="cls-5" d="m219.01,148.13H40.09c-5.91,0-10.75-4.83-10.75-10.74V59.07c0-5.91,4.84-10.74,10.75-10.74h178.93c5.91,0,10.75,4.83,10.75,10.74v78.32c0,5.98-4.76,10.74-10.75,10.74Z"/>
  <path class="cls-6" d="m230.68,140.16H51.76c-6.14,0-11.13-4.99-11.13-11.12V50.63c0-6.14,4.99-11.12,11.13-11.12h178.93c6.14,0,11.13,4.99,11.13,11.12v78.32c0,6.21-4.99,11.2-11.13,11.2ZM51.76,41.04c-5.3,0-9.6,4.3-9.6,9.59v78.32c0,5.29,4.3,9.59,9.6,9.59h178.93c5.3,0,9.6-4.3,9.6-9.59V50.63c0-5.29-4.3-9.59-9.6-9.59H51.76Z"/>
  <path class="cls-6" d="m404.16,215.57h-178.93c-6.14,0-11.13-4.99-11.13-11.12v-78.32c0-6.14,4.99-11.12,11.13-11.12h178.93c6.14,0,11.13,4.99,11.13,11.12v78.32c0,6.14-4.99,11.12-11.13,11.12Zm-178.93-99.04c-5.3,0-9.6,4.3-9.6,9.59v78.32c0,5.29,4.3,9.59,9.6,9.59h178.93c5.3,0,9.6-4.3,9.6-9.59v-78.32c0-5.29-4.3-9.59-9.6-9.59h-178.93Z"/>
  <path class="cls-5" d="m456.71,342.97c-2.61,0-4.84-2.07-4.99-4.68l-.77-11.28c-.15-2.76,1.92-5.14,4.68-5.29l88.62-5.83c5.84-.38,10.98,4.07,11.37,9.9s-4.07,10.97-9.91,11.35h0l-88.62,5.83c-.15,0-.23,0-.38,0Z"/>
  <path class="cls-7" d="m474.22,344.42c-2.69,0-4.91-2.15-4.99-4.83l-.61-16.88c-.08-2.76,2.07-5.06,4.84-5.14h0l72.88-2.68c2.76-.08,5.07,2.07,5.15,4.83l.61,16.88c.08,2.76-2.07,5.06-4.84,5.14h0l-72.88,2.68h-.15Z"/>
  <path class="cls-7" d="m559.62,500h-11.37c-2.76,0-4.99-2.22-4.99-4.99v-94.36c0-2.76,2.23-4.99,4.99-4.99h11.37c2.76,0,4.99,2.22,4.99,4.99v94.36c-.08,2.76-2.3,4.99-4.99,4.99Z"/>
  <path class="cls-7" d="m537.19,500h-11.37c-2.76,0-4.99-2.22-4.99-4.99v-94.36c0-2.76,2.23-4.99,4.99-4.99h11.37c2.76,0,4.99,2.22,4.99,4.99v94.36c0,2.76-2.3,4.99-4.99,4.99Z"/>
  <ellipse class="cls-5" cx="542.34" cy="258.05" rx="39.16" ry="39.12"/>
  <path class="cls-7" d="m525.14,275.31c-1.31,0-2.61-.23-3.84-.77-1.69-.77-2.92-2.3-3.38-4.07-.38-1.23-.08-2.61.69-3.68,1-1.3,2.76-1.92,4.84-1.76l-5.15-14.35,1.46-.54,6.07,16.88-1.38-.31c-1.61-.38-3.61-.31-4.61,1-.46.69-.61,1.53-.38,2.38.38,1.3,1.31,2.45,2.53,2.99,2.15,1,4.61.61,7.45.08l.31,1.53c-1.61.38-3.07.54-4.61.61Z"/>
  <rect class="cls-7" x="503.15" y="254.28" width="8.29" height="1.53" transform="translate(-41.57 109.64) rotate(-11.85)"/>
  <rect class="cls-7" x="528.73" y="248.98" width="8.29" height="1.53" transform="translate(-39.94 114.78) rotate(-11.85)"/>
  <path class="cls-6" d="m423,345.96l44.16,24.24c1,.61,2.3.38,2.92-.61.08-.08.15-.23.15-.31l10.83-22.55c.46-1.3-.15-2.76-1.46-3.38l-36.63-18.87c-.92-.54-2.15-.31-2.84.54l-18.28,17.26c-.77,1.3-.23,2.99,1.08,3.68h0s0,0,.08,0Z"/>
  <polygon class="cls-3" points="425.92 342.66 467.31 366.29 478.37 346.42 442.81 327.16 425.92 342.66"/>
  <ellipse class="cls-1" cx="461.07" cy="335.41" rx=".54" ry=".61" transform="translate(-107.69 375.45) rotate(-40.06)"/>
  <circle class="cls-1" cx="445.68" cy="355.78" r=".38"/>
  <path class="cls-7" d="m575.05,425.97h-66.04c-3.61,0-6.53-2.92-6.53-6.52l13.82-105.94c0-3.61,2.92-6.44,6.53-6.44h23.42c19.51,0,35.32,15.8,35.32,35.29v77.1c0,3.61-2.92,6.52-6.53,6.52Z"/>
  <path class="cls-4" d="m529.97,306.68l-17.89,39.12,3.07-32.83c0-3.45,2.69-6.21,6.14-6.29h8.68Z"/>
  <path class="cls-5" d="m471.92,381.78c-2,0-3.76-1.15-4.53-2.92l-4.61-10.36c-1.15-2.53,0-5.45,2.53-6.6h0l81.02-36.29c5.38-2.38,11.67,0,14.05,5.37,2.38,5.37,0,11.66-5.38,14.04h0l-81.02,36.29c-.69.31-1.38.46-2.07.46Z"/>
  <path class="cls-7" d="m495.57,376.41c-2,0-3.76-1.15-4.53-2.92l-7.91-17.64c-1.15-2.53,0-5.45,2.53-6.6l66.5-29.84c2.53-1.15,5.45,0,6.6,2.53h0l7.91,17.64c1.15,2.53,0,5.45-2.53,6.6h0l-66.5,29.84c-.69.23-1.38.38-2.07.38Z"/>
  <path class="cls-6" d="m649.08,499.92h-245.97c-.54,0-.92-.38-.92-.92s.38-.92.92-.92h245.97c.54,0,.92.38.92.92s-.46.92-.92.92Z"/>
  <path class="cls-7" d="m586.8,264.72s24.57-58.84-10.75-49.94c0,0,4.22-60.3-65.81,6.06l-15.82,7.21s54.45,12.2,94.3,52.55l-1.92-15.88Z"/>
</svg>